<svg xmlns="http://www.w3.org/2000/svg" viewBox="0 0 745.11 709.44"><defs><style>.cls-1{fill:none;}.cls-2{fill:#fff;}.cls-3{fill:#171718;}</style></defs><title>Recurso 1</title><g id="Capa_2" data-name="Capa 2"><g id="Capa_1-2" data-name="Capa 1"><path class="cls-1" d="M647.26,306.51c19.3,12.1,40.6,22.7,57.6,38.4,17.5,16.1,29,40.8,35.9,63.3.3.7.8,1.3,1.5,1.3,3.2.1,2.2-13.5,1.8-14.7-9.2-24.8-24.7-51.3-48.1-65.3-1.5-1-1.4-1.7.3-2.4a26.57,26.57,0,0,1,19.8.1,2.1,2.1,0,0,1,.8,1.1c3.1,14.4,10.1,20.9,22.3,30.4.8.7,2.5,2.2,3.6,1.8a2.29,2.29,0,0,0,1.4-2.4c-1-6.7-2-21.2-7.1-25.6a81.86,81.86,0,0,0-9.1-7.1c-3.4-2.1-7.6,1-9.5-2.8h0a.68.68,0,0,1,.4-.8c5.5-2.2,8.7-1,13.9,2.4,3.2,2,13.2,7.8,12.2.1a77.29,77.29,0,0,1-.7-12.8c.3-13.2-26.2,2.7-29.6,4.9a1.38,1.38,0,0,1-1.1-.1,1.55,1.55,0,0,1,.1-2.5c6.4-6.3,7.4-12.2,5.3-21.2-1-3.8-4.6-18.9-10.5-15.1a2.1,2.1,0,0,0-.8,1.1c-3.9,11.1-12.8,24.9-2.2,35.5a2.47,2.47,0,0,1-1.3,4.2c-14.7,2.9-25.4-1.1-37.4-10.5-13.9-10.8-27.3-20-33.9-37.6"/><path class="cls-1" d="M643.86,306.71c1-1.5,2.1-1.3,3.6.4"/><path class="cls-1" d="M614.56,281.21c2.7,14,9.5,24.8,17.7,36.3,3.4,4.6,2.9,9.2-1.1,14.2-12.5,15-26.6,38.4-12.6,57l9.5,9.5c7.1,7.1,18.4,22.1,16.3,33.1a2.33,2.33,0,0,1-.7,1.3,2.08,2.08,0,0,1-3.2,0c-5.3-5.5-10.4-4.5-17.2-1.7-4.2,1.7-17.9,6-19.6,10.1-.1.1-.1.1-.1.3a2.4,2.4,0,0,0,1.7,2.9c4.9,1.4,9.2,2.9,13.5,4.5,13.5,5.3,17-11.1,26.5-12.6h0a.67.67,0,0,1,.7.6,33,33,0,0,1-1.8,13.3c-3.2,9-13.7,11.2-16.3,20.3-2,7-6.4,20.6-4.6,24.9a.78.78,0,0,0,1,.4,18,18,0,0,0,4.9-2.9c8.8-6.9,20.6-17.1,22.1-27,.6-3.6-.4-7.7-.7-11.8-.4-6.9,5.6-11.2,3.5-19.2q-2.55-9.6-4.5-19.5a2.59,2.59,0,0,0-.7-1.1,20.62,20.62,0,0,1-4.2-6,186.57,186.57,0,0,0-9.4-16.3v-.4a.42.42,0,0,1,.6-.3c9.4,3.5,19.5,2.7,26.2,10.7,2.5,2.9-.1,11.1-1.1,14.6-2.7,10.4,1.3,14.2,8.1,21.2.3.3.4.4.7.4a1.27,1.27,0,0,0,1.5-1,106.56,106.56,0,0,1,3.9-12.5c3.1-7.7-2.1-15.6-4.8-22-.1-.1,0-.4.1-.6a.38.38,0,0,1,.7,0c2.2,2.8,4.3,4.5,5.9,7.7a42,42,0,0,0,11.9,15.1,92.5,92.5,0,0,1,9.8,9,3.88,3.88,0,0,0,1.1.6,2.15,2.15,0,0,0,2.7-1.7c1.5-7.3.7-19.6-6-24.5-3.4-2.5-10.5-3.6-15.3-5.3-7.4-2.5-13.3-4.5-17.4-10.2a.9.9,0,0,1-.1-1.1,1.22,1.22,0,0,1,1.5-.6c13.6,6.3,21.7-1.8,26.3-14.2,1.3-3.1.7-4.2-2.7-4.3-6.2-.3-11.9.1-17.1,3.9s-10.2,7.6-15.4,11.4a3.64,3.64,0,0,1-2.7.6c-15.8-3.2-34.1-14.3-24.4-33.8a72.51,72.51,0,0,1,9.5-14.3c4.2-5,12.5-15.4,9.8-22-1.4-3.6-3.1-7.6-4.8-11.5"/><path class="cls-1" d="M593.56,510c5.2-11.2,6.3-21,7.4-34.1,3.6-43.2-31-71.2-37.8-110.6a5.72,5.72,0,0,1,.1-1.4c6.9-17.7,13.3-35.6,19.2-53.5a275.15,275.15,0,0,1,28.4-60.7.55.55,0,0,1,.6-.4c.6,0,1,.3,1,.7.6,4.1-.6,8.1-.1,12.1.7,6.4,1.5,12.8,2.7,19.1"/><path class="cls-1" d="M568.06,522.51c-8.5,12.8-1.1,21,6.9,31,6,7.6,14.9,20.5,11.4,29.7-4.1,10.5-17.1,16.7-27.7,17.5a1.67,1.67,0,0,1-1.3-.3c-11.2-7-19.6-18.4-34.6-14.3a1.21,1.21,0,0,0-1,.8c-1.5,4.6,4.9,12.8,8,15.7,9.4,9.2,17.9-1.3,22.3,1.3.6.3.6.6,0,.8a12.38,12.38,0,0,0-5.5,4.9,3.46,3.46,0,0,1-1.1,1c-7.6,2.9-15,6-22.7,8.4-12.5,3.9-14,14.9-12.2,26.1.4,2.2,1.4,2.7,3.2,1.3,5.3-4.2,10.4-8.3,15-12.6,5-4.6,7.8-10.5,11.6-16.3a2.06,2.06,0,0,1,2.7-1.1h.1a.67.67,0,0,1,.3.8c-1.5,3.1-6.2,9.1-5.7,12.3,1,6.3,1.8,12.5,2.7,18.8a1.9,1.9,0,0,0,.7,1.1c4.9,3.9,10.4-7.8,12.6-11.2,4.6-7-7.1-13.2-2.8-20.5a35.17,35.17,0,0,1,7.7-9.1c.4-.3.7-.6,1.1-.6l17.5-2.7c2-.3,2.2.3,1,1.8-11.6,13.5-22.4,33.2-17.1,51.9a41.33,41.33,0,0,1,1.3,11.6,45,45,0,0,0,.1,8.8c2.4,10.7,16.1,21.9,24.2,28.6a2.27,2.27,0,0,0,3.6-2.1c-1.1-6.6-2.4-13.2-3.5-19.6-1.7-9.5-10.5-12.8-15.4-20.5A29.48,29.48,0,0,1,567,649c0-.3.1-.4.3-.7a1.29,1.29,0,0,1,1.8-.3c9,6.3,13.9,18.1,26.8,13,4.6-1.8,9.4-3.4,14-4.8a2.21,2.21,0,0,0,1.3-1,2,2,0,0,0-.8-2.7c-8-3.9-16.1-7.6-24.2-10.7-6.3-2.5-7.8.4-12.6,3.5a1.9,1.9,0,0,1-1.3.1c-3.8-1.1-5-3.5-3.8-7.1,3.5-10.4,8.4-18.8,14.7-25.1s12.2-11.4,15.1-18.6c8.3-20.3-9.5-39-18.6-55.4a21.93,21.93,0,0,1-.8-2.8,3,3,0,0,1,.1-1.3c3.9-9.2,10.5-16.4,14.7-25.6"/><path class="cls-1" d="M567,519.61c2.7-2.4,1.7,2.5,1.4,3.2"/><path class="cls-1" d="M508.26,528c10.5-9.8,3.5-23-1.7-36.7a1.37,1.37,0,0,0-1-.8c-2.7-.7-4.6,0-5.9,2.2-6.3,10.9-10.2,26.8,1,35.9h0a.67.67,0,0,1,0,1,3.46,3.46,0,0,1-3.1-.3c-11.8-8.5-20.3-11.5-34.8-6.4-7.3,2.5-14.6,5.5-21.6,8.7-11.1,5,2.8,10.8,7,12.3,17.9,6.7,32.5-11.4,48.3-8.8.4,0,.4.1,0,.4-4.1,2.2-8.4,1.8-11.9,3.9-13.3,8-13.7,18.6-15.1,32.5a1.72,1.72,0,0,0,.6,1.5,2,2,0,0,0,2.9.1c6-5.3,13.7-10.8,18.2-17.1,2.9-4.2,3.1-10.1,6-14.3,3.9-5.6,15.7-2.4,21.3-1,.4.1.6.3.1.6a124,124,0,0,0-44.6,55.6q-10.35,25.2-17.1,37.8c-2.1,3.8-5.5,7.1-10.4,10.2a.78.78,0,0,1-1.1,0c-9.2-6.6-10.1-13.6-23.8-13.3a170.94,170.94,0,0,1-22.6-1h-.1c-.3,0-.4.3-.3.6,1.7,5.7,7.3,19.2,14,20.3a44.9,44.9,0,0,0,23.5-2.2,4.75,4.75,0,0,1,3.1.1l.1.1a.85.85,0,0,1,0,.7c-1.5,1.7-2.8,3.4-5,4.2-10.2,3.6-17,9.1-28.9,5.6-24.5-7-28.2,9.4-39.7,24.9-.1.4-.3.7-.1,1.1a1.4,1.4,0,0,0,1.5.7q15.15-5.1,29.4-8.4c4.6-1,10.8-4.5,15.3-8s8.1-5.6,10.4-6.3a81.83,81.83,0,0,0,24-11.4,59.11,59.11,0,0,1,13.3-6.3,1.09,1.09,0,0,0,.8-.8,45.8,45.8,0,0,1,3.4-8.1C477,610.21,487,577,511.06,556c9.4-8.1,21.2-16.1,35.3-24.1,6.4-3.5,13.3-8.5,20.3-12.3"/><path class="cls-1" d="M508.76,531.31l-.7-3.5"/><path class="cls-1" d="M558.56,511.61c-7.3,5.9-17.2,15.7-26.2,18.2a53.35,53.35,0,0,1-23.5,1.4"/><path class="cls-1" d="M213.06,451l1.7-.4a.82.82,0,0,1,1,.4c.7,1.1-2.7,5.3-3.5,6.2-3.2,3.5-9.9,4.9-14,7.6-8.1,5.3-9.4,19.3-9.4,28a1.42,1.42,0,0,0,1.3,1.4c3.2.3,11.6-8.5,14-10.9a18.78,18.78,0,0,0,5.7-12.9c0-1.1.7-2.4,1.8-4.1a2.1,2.1,0,0,1,1.1-.8c4.1-1.7,5.7-3.8,7.3-8.3,4.3-12.6,22-18.9,32.5-22.1a3,3,0,0,1,1.3.1,23.67,23.67,0,0,1,4.6,2.8c12.8,11.8,21.4,19.9,25.8,24.2a19.66,19.66,0,0,0,14.4,6.3,2.85,2.85,0,0,0,1.4-.6c2.7-2.2,3.2-5,2-8.4a2,2,0,0,1,.1-.8,1,1,0,0,1,1.3-.3c6.6,4.3,14.6,10.9,22.8,9.7a.71.71,0,0,0,.6-.3,1.06,1.06,0,0,0,0-1.4,125.63,125.63,0,0,0-19.2-16.7,11.87,11.87,0,0,1-3.5-3.9c-3.8-6.9-11.6-12.6-18.1-17.4a.44.44,0,0,1-.1-.3c0-.3.1-.6.4-.6a6.89,6.89,0,0,1,2,.1c23.4,5.5,47.5,5,71.5,4.6a45.18,45.18,0,0,1,10.4.8c.1,0,.3,0,.3.1s0,.4-.1.6c-17.7,10.9-30,24.4-43.3,39.9-9.2,10.7-20.9,20-34.9,23.7-11.5,3.1-22.3,4.2-34.6,7.8-18.4,5.5-32,16.7-40.6,33.6a2,2,0,0,1-1,1c-3.5,1.5-6.2.7-8-2.5a5.24,5.24,0,0,0-1.1-1c-3.2-1.7-6-2.4-8.5-2.1a126.82,126.82,0,0,1-22.3,1,1.93,1.93,0,0,0-1,.3,1.78,1.78,0,0,0-.6,2.4c4.5,6.9,13.3,14.9,22.4,13,4.3-1,8.3-4.6,14-5.7.1-.1.4,0,.6,0a1.24,1.24,0,0,1,.8,1.5c-1,3.2-3.9,4.8-6.4,6.7-8.3,6.3-20.2-.6-27.5,9.1-4.6,6-9.2,12.1-14.2,18.1a3.54,3.54,0,0,0-.3,1.1,1.51,1.51,0,0,0,1.7,1.4c10.9-1.3,27.2-3.6,34.6-13,5.2-6.6,9-13.6,16.1-18.2.1,0,.3-.1.4,0a.52.52,0,0,1,.3.7c-3.6,7.1-6.6,15-11.8,20.7-11.2,12.5-30.8,21.7-47.5,14.9-12.8-5.3-27-.6-38.3,4.8a1.78,1.78,0,0,0-.8.7,2.25,2.25,0,0,0,.6,3.1,93.48,93.48,0,0,0,16.4,9.4c10.9,4.9,22.1-.7,31.3-6,6.2-3.6,11.8-4.9,18.6-5.7a1.5,1.5,0,0,1,1.1.4,1.12,1.12,0,0,1,0,1.8c-4.6,4.5-10.9,10.4-8,17.7a63.34,63.34,0,0,0,10.4,17.5c0,.1.1.1.3.3a2.21,2.21,0,0,0,3.1-.4c11.9-15.1-2.2-21.3-2.8-35.2a1.39,1.39,0,0,1,.4-1.3c13-13,26.5-19.5,32.4-38.5.1-.3.3-.4.4-.6a1,1,0,0,1,1.3.3c2.8,4.8,5.3,9.5,7.7,14.3,5,10.4-4.9,22.1.8,31.5a146.81,146.81,0,0,1,8.1,15.8.1.1,0,0,1,.1.1,1.59,1.59,0,0,0,2.1.4c2.8-1.8,6.6-15.4,7.4-18.9,1.5-6.4-5.3-14-8.3-19.9a166.23,166.23,0,0,0-15-24.9c-1.4-2-2-6.2-1.5-8.8,5-29.8,37.7-35.2,62.6-39.4a115.62,115.62,0,0,0,28.2-8.5c.1-.1.4-.1.6-.1a1.22,1.22,0,0,1,1.1,1.3,55.13,55.13,0,0,0,5.2,27.7c3.2,6.7,7.8,17.5.6,23.5a74,74,0,0,1-18.5,11.1c-9.2,3.8-17,8.4-15.8,19.2.3,3.6,3.9,19.1,8,20a1.69,1.69,0,0,0,1.7-.7,151.56,151.56,0,0,0,15-33.5c1.8-6.2,11.8-11.9,17.4-14.6.4-.1.6-.1.3.3a99,99,0,0,0-9.2,16.5c-4.2,9.8,1.7,24.1,8,31.4.1.3.4.4.7.6a2,2,0,0,0,2.7-1l9.7-22.4a2.25,2.25,0,0,0,.1-1.4c-1.5-10.2-10.2-17.2-10.4-27.9-.3-11.4-2.7-22.3-4.1-33.6a1,1,0,0,1,.3-1,1.35,1.35,0,0,1,1.7,0,87.33,87.33,0,0,1,9,10.8c3.4,4.8,1.7,10.2,5.3,15.1,4.6,6.3,12.5,11.6,18.4,17.1a.6.6,0,0,0,.4.1.86.86,0,0,0,.6-.7c-.4-7-.4-14.2-.1-21.2.4-11.5-12.5-13.9-20.2-17-6.3-2.5-9.8-6.7-13.3-12.1a1.84,1.84,0,0,1-.4-1.3c-.3-18.1,24.9-37.8,38.4-47.4,12.9-9,28.3-14.2,46.4-15.3,17.7-1.1,32.2-1.4,43.7-1,4.6.1,11.1,29,17.1,33.5,2.4,1.8,14.2,4.2,15-.6,1-5.7,1.7-11.1-1-16.5a141,141,0,0,1-7-17.2v-.1c-.1-.3.1-.7.4-.7a125.13,125.13,0,0,0,62.5-33.6l.1-.1a2.06,2.06,0,0,1,2.8.4,282.16,282.16,0,0,1,30.4,50.5c9.8,21.2-4.5,42.6-21.2,55.1"/><path class="cls-1" d="M207.06,438.81a216.7,216.7,0,0,1-59.3,25.2c-18.8,4.9-41.2,7-62.1,9.9h-.4a2.18,2.18,0,0,1-2-2.2l.4-6.2a2.42,2.42,0,0,0-.4-1.3c-4.5-5.9-11.5-9.7-16-13.5-2.5-2.1-5-4.1-7.7-6.2a.44.44,0,0,0-.3-.1,1.62,1.62,0,0,0-2.1.8c-4.3,10.1,5.2,22.1,13.2,26.9.3.1.3.4-.1.4-6,.8-14.4,2-19.8-1-10.1-5.5-16.5-9.8-28.9-8.1a197.73,197.73,0,0,1-20.5,1.5,1.42,1.42,0,0,0-1,1c-1,7,10.8,16.7,16.5,18.1,9.9,2.4,19.8,1,29.3-4.5,4.9-2.7,10.8-1.8,16.1-1.8,5.5.1,15.4-.6,23.1.7a.67.67,0,0,1,.7.4,1,1,0,0,1-.3,1.3,104.12,104.12,0,0,1-17.7,10.2c-9.2,4.3-17.7,14.2-15.7,24.9.6,2.7,3.2,17.1,5.2,18.1.4.3.8.1,1.1-.3,3.9-5.7,7.4-11.5,10.8-17.5,3.5-6.3,3.8-14.2,6.6-20.2,4.8-9.8,12.9-15.6,24.5-17.1,13.9-1.8,27.7-3.8,41.6-6,6.2-1,12.9-3.8,19.5-4.6a1.28,1.28,0,0,1,1,.4,1.08,1.08,0,0,1-.1,1.5c-12.5,10.4-21.9,17.5-38.7,18.1-6.2.3-9.9.6-11.4,1-10.1,3.1-14.9,16.4-19.2,25.1a1,1,0,0,0,.3,1.1c.8.4,18.1-3.9,20.5-4.3,4.8-.8,10.4-4.8,14.6-8.7,6.9-6.3,13.2-12.6,21.6-16.5a1.08,1.08,0,0,1,1.1,0,1,1,0,0,1,.4,1.5c-4.3,7.4-9.1,13.2-4.2,22a132.5,132.5,0,0,0,10.5,15.6l.4.4a1.53,1.53,0,0,0,2.2-.6c6.7-11.2,6.3-21.2-1.1-29.8-3.2-3.9-3.4-8.1-2.7-12.8a1.74,1.74,0,0,1,.6-1.1c14-13.5,36.3-22.4,55.9-29.7"/><path class="cls-1" d="M213.36,451c1.5-5.6-4.1-4.3-4.8-8a16,16,0,0,0-1.4-4.2"/><path class="cls-1" d="M567,519.61v-.7a.86.86,0,0,0-.6-.7l-5.5-1.3c-.4,0-.6-.3-.6-.7a4.65,4.65,0,0,0-1.8-4.6"/><path class="cls-1" d="M593.56,509.91c-3.1.1-5,1.4-5.7,3.6-1.5,4.6-8.1,14.2-14.4,10.7a8.8,8.8,0,0,0-5-1.4"/><path class="cls-1" d="M644.06,307l-4.2-3.9a1.74,1.74,0,0,0-1.1-.6l-6.7-.6a1.27,1.27,0,0,1-1.1-1.1l-.4-3.6a1.28,1.28,0,0,0-.4-1l-2.7-3.4a1.24,1.24,0,0,1-.4-1.4,5,5,0,0,0-2.5-5.3,1.52,1.52,0,0,0-1.3-.3h-1a2.1,2.1,0,0,1-1.1-.8l-2-4.1a1.21,1.21,0,0,0-1.1-.8,3.23,3.23,0,0,0-2.9,1.1"/><path class="cls-1" d="M632.86,270.41c-.7,3.1-1,5.2-.4,6.2,2.4,4.6-1.8,8.5,2,11.8a2.29,2.29,0,0,1,.7,1l.4,1.1a2.29,2.29,0,0,0,.7,1c3.9,3.5,8.8,7.3,8.4,10.8a1.19,1.19,0,0,0,.4,1.1,5.43,5.43,0,0,1,2.5,3.8"/><path class="cls-1" d="M508.06,527.71c-2.2,0-.4,3.1.7,3.5"/><path class="cls-1" d="M473,71.71a6.77,6.77,0,0,0-5-2.5c-.4-.1-.7.1-.8.6-2.5,9.8-4.9,25.6,3.8,32.7,7.1,5.6,13.2,4.9,21,7h.7a1.67,1.67,0,0,0,1.5-2c-.4-4.2.3-9.2-1.1-13-3.6-9.4-13.6-14.4-20.1-22.8"/><path class="cls-1" d="M233.26,501.31c4.8-3.4,2.9-13.7,1.4-18.2a22.14,22.14,0,0,0-4.9-7.1,89.76,89.76,0,0,1-9.2-11.9l-.1-.1c-.3-.3-.7-.3-.8,0-4.9,5-8.3,13.9-3.2,20a166.71,166.71,0,0,0,16.1,17.4.63.63,0,0,0,.7-.1"/><path class="cls-2" d="M449.06,674.81c3.2-7.8,6.9-16,11.1-24.4,0-.3.1-.6,0-.8-.6-1.7-1.3-1.7-2.1-.1a41.06,41.06,0,0,1-10.2,12.9c-5,4.2-14.4,7.8-18.9,12.9-5.3,6.2-6.4,15.7-6.2,23.7v.4a2.09,2.09,0,0,0,2.5,1.7,5.3,5.3,0,0,0,2.7-1.5c8.2-7.8,16.8-14,21.1-24.8"/><path class="cls-1" d="M423.56,400.91a6.49,6.49,0,0,0-3.2,4.8h0a.42.42,0,0,0,.4.4l22.3.6h.1c.3,0,.4-.3.4-.6-1-4.3-5.5-12.6-10.5-12.8-6.7-.1-5.5,5-9.5,7.6"/><path class="cls-1" d="M417.56,644.11c0,.8,2.5,1.7,5.7,1.8h0c3.2.1,5.9-.6,5.9-1.4s-2.5-1.7-5.7-1.8h0c-3.2-.1-5.9.6-5.9,1.4"/><path class="cls-2" d="M619,147.41a192.07,192.07,0,0,0,49.7,6.6c9.2,0,17.5-2.8,26.5-5a240.15,240.15,0,0,1,48.1-6.2h0a.94.94,0,0,1,1,1v82.4a1.9,1.9,0,0,1-2,1.8,110.08,110.08,0,0,1-58.7-21.3c-1.5-1.1-3.5-1.4-6-.8-12.2,3.1-25.2,4.9-31.3,14.3-5.7,8.8-13.9,23-15.1,33.2a43.79,43.79,0,0,0,1.5,17.2c-.7,3.1-1,5.2-.4,6.2,2.4,4.6-1.8,8.5,2,11.8a2.29,2.29,0,0,1,.7,1l.4,1.1a2.29,2.29,0,0,0,.7,1c3.9,3.5,8.8,7.3,8.4,10.8a1.19,1.19,0,0,0,.4,1.1,5.43,5.43,0,0,1,2.5,3.8c-1.5-1.7-2.8-1.8-3.6-.4l-4.2-3.9a1.74,1.74,0,0,0-1.1-.6l-6.7-.6a1.27,1.27,0,0,1-1.1-1.1l-.4-3.6a1.28,1.28,0,0,0-.4-1l-2.7-3.4a1.24,1.24,0,0,1-.4-1.4,5,5,0,0,0-2.5-5.3,1.52,1.52,0,0,0-1.3-.3h-1a2.1,2.1,0,0,1-1.1-.8l-2-4.1a1.21,1.21,0,0,0-1.1-.8,3.23,3.23,0,0,0-2.9,1.1c-1.1-6.3-2-12.6-2.7-19.1-.4-3.9.7-8,.1-12.1-.1-.3-.3-.4-.4-.6a1,1,0,0,0-1.1.3,279.75,279.75,0,0,0-28.4,60.7c-5.9,17.9-12.3,35.9-19.2,53.5a2.25,2.25,0,0,0-.1,1.4c6.9,39.4,41.5,67.4,37.8,110.6-1.1,13-2.2,22.8-7.4,34.1-3.1.1-5,1.4-5.7,3.6-1.5,4.6-8.1,14.2-14.4,10.7a8.8,8.8,0,0,0-5-1.4c.3-.7,1.3-5.6-1.4-3.2V519a.86.86,0,0,0-.6-.7l-5.5-1.3c-.4,0-.6-.3-.6-.7a4.65,4.65,0,0,0-1.8-4.6c16.7-12.5,31-33.9,21.2-55.1a288.13,288.13,0,0,0-30.4-50.5l-.1-.1a2.13,2.13,0,0,0-2.8,0,125.9,125.9,0,0,1-62.5,33.6h-.1c-.4.1-.6.6-.4.8a134.75,134.75,0,0,0,7,17.2c2.8,5.6,2.1,10.8,1,16.5-1,4.8-12.6,2.4-15,.6-6-4.5-12.5-33.4-17.1-33.5-11.5-.4-26.1-.1-43.7,1-18.1,1.1-33.5,6.2-46.4,15.3-13.3,9.5-38.7,29.3-38.4,47.4a2.42,2.42,0,0,0,.4,1.3c3.5,5.3,7,9.5,13.3,12.1,7.7,3.2,20.6,5.6,20.2,17-.3,7-.1,14,.1,21.2a.6.6,0,0,1-.1.4c-.3.3-.6.3-.8,0-5.9-5.5-13.7-10.8-18.4-17.1-3.6-4.9-2.1-10.4-5.3-15.1a79.31,79.31,0,0,0-9-10.8,2.93,2.93,0,0,0-1-.3,1.25,1.25,0,0,0-1,1.4c1.5,11.4,3.9,22.3,4.1,33.6.1,10.7,8.7,17.7,10.4,27.9a3.33,3.33,0,0,1-.1,1.4l-9.7,22.4a1.06,1.06,0,0,1-.6.7,2,2,0,0,1-2.8-.3c-6.3-7.4-12.2-21.6-8-31.4a95.18,95.18,0,0,1,9.2-16.5c.3-.4.1-.4-.3-.3-5.5,2.7-15.4,8.3-17.4,14.6a147.08,147.08,0,0,1-15,33.5,1.56,1.56,0,0,1-1.7.7c-4.1-1-7.7-16.4-8-20-1.1-10.8,6.6-15.4,15.8-19.2a68.45,68.45,0,0,0,18.5-11.1c7.3-6,2.5-16.8-.6-23.5a55.33,55.33,0,0,1-5.2-27.7,1.49,1.49,0,0,0-.1-.6,1.22,1.22,0,0,0-1.5-.6,110.19,110.19,0,0,1-28.2,8.5c-24.9,4.2-57.5,9.5-62.6,39.4-.6,2.8.1,6.9,1.5,8.8a175,175,0,0,1,15,24.9c2.9,6,9.8,13.6,8.3,19.9-.8,3.5-4.6,17.1-7.4,18.9a.1.1,0,0,1-.1.1,1.5,1.5,0,0,1-2-.7c-2.5-5.3-4.9-10.8-8.1-15.8-5.9-9.2,4.2-21-.8-31.5-2.4-4.9-4.9-9.7-7.7-14.3-.1-.1-.3-.4-.6-.4a.91.91,0,0,0-1.1.6c-5.9,19.1-19.3,25.5-32.4,38.5a2,2,0,0,0-.4,1.3c.6,13.9,14.7,19.9,2.8,35.2l-.3.3a2.2,2.2,0,0,1-3.1-.3,70.41,70.41,0,0,1-10.4-17.5c-2.9-7.4,3.4-13.3,8-17.7a1.5,1.5,0,0,0,.4-1.1,1.14,1.14,0,0,0-1.4-1.1c-6.9.8-12.5,2.2-18.6,5.7-9.1,5.3-20.3,10.9-31.3,6a93.48,93.48,0,0,1-16.4-9.4c-.3-.1-.6-.6-.7-.8a2.29,2.29,0,0,1,1.1-2.9c11.2-5.3,25.5-9.9,38.3-4.8,16.7,6.9,36.3-2.2,47.5-14.9,5.2-5.7,8.1-13.6,11.8-20.7a.3.3,0,0,0,0-.4c-.1-.3-.4-.3-.7-.1-7.1,4.8-10.9,11.8-16.1,18.2-7.4,9.4-23.7,11.8-34.6,13a1.13,1.13,0,0,1-1.1-.3,1.57,1.57,0,0,1-.1-2.2c4.9-6,9.5-12.1,14.2-18.1,7.3-9.7,19.2-2.8,27.5-9.1,2.5-2,5.5-3.5,6.4-6.7v-.6a1.17,1.17,0,0,0-1.4-1c-5.7,1.1-9.7,4.9-14,5.7-9.1,2-17.9-6.2-22.4-13a2.93,2.93,0,0,1-.3-1,1.71,1.71,0,0,1,1.8-1.7,126.82,126.82,0,0,0,22.3-1c2.5-.3,5.3.4,8.5,2.1a2.71,2.71,0,0,1,1.1,1c2,3.2,4.6,4.1,8,2.5.4-.1.7-.6,1-1,8.7-17,22.3-28.2,40.6-33.6,12.3-3.6,23.1-4.9,34.6-7.8,14.2-3.6,25.6-12.9,34.9-23.7,13.3-15.6,25.6-29,43.3-39.9,0-.1.1-.1.1-.3s0-.4-.3-.4a60,60,0,0,0-10.4-.8c-23.8.4-47.9.8-71.5-4.6a14.08,14.08,0,0,0-2-.1c-.1,0-.1,0-.3.1a.76.76,0,0,0,.1.7c6.3,4.6,14.2,10.5,18.1,17.4a11.87,11.87,0,0,0,3.5,3.9,126.35,126.35,0,0,1,19.2,16.7,1.14,1.14,0,0,1,.3.6,1,1,0,0,1-.8,1.1c-8.3,1.3-16.1-5.3-22.8-9.7-.3-.3-.6-.3-.8-.1a1.08,1.08,0,0,0-.6,1.3c1.3,3.5.6,6.3-2,8.4a1.82,1.82,0,0,1-1.4.6,19.34,19.34,0,0,1-14.4-6.3c-4.3-4.3-12.9-12.5-25.8-24.2a23.67,23.67,0,0,0-4.6-2.8,1.21,1.21,0,0,0-1.3-.1c-10.7,3.2-28.2,9.5-32.5,22.1-1.5,4.5-3.2,6.6-7.3,8.3a2.1,2.1,0,0,0-1.1.8c-1.1,1.7-1.8,2.9-1.8,4.1a19.43,19.43,0,0,1-5.7,12.9c-2.4,2.4-10.8,11.2-14,10.9a1.49,1.49,0,0,1-1.3-1.4c0-8.7,1.1-22.8,9.4-28,4.1-2.7,10.8-4.1,14-7.6.8-.8,4.1-5,3.5-6.2a.78.78,0,0,0-1-.4l-1.7.4c1.5-5.6-4.1-4.3-4.8-8a16,16,0,0,0-1.4-4.2c.7-6.9,65.3-27,65.7-27a94.35,94.35,0,0,1,16.8-.4c19.9,1.4,39.5,2.9,59.4,1,17.7-1.8,35.2-4.1,52.8-6.6.6,0,37,13.3,82.5-5.8.1.1,11.9-6.1,11.9-6.1a12.43,12.43,0,0,0,3.1-1.8c34.6-33.5,50.7-83.9,69.5-127.5,16.3-37.6,36.6-70.1,71.1-92.5,2.1-1.4,2-2.4-.6-2.9a205,205,0,0,1-59.7-24.5h0a.52.52,0,0,0-.7.3c-7.3,16.4-14.6,32.8-21.7,49.3-3.1,7-3.5,10.7-11.6,9.5-2.9-.4-4.5-.4-5-3.8-.6-3.9-.8-7.6,1-11.4,6.2-13.5,12.1-26.9,17.5-40.5,2.7-6.6,3.6-11.5-2.4-15.8a1.82,1.82,0,0,0-2.4,0l-23.1,16.8a1.14,1.14,0,0,1-.6.3,2.08,2.08,0,0,1-2.7-1.3c-1.1-3.5,11.2-20.9,13.7-24.8a1.17,1.17,0,0,0-.3-1.7c-5.5-4.3-14.6-11.2-21.4-9.8-8.3,1.7-31.8,3.2-29,17.5,1.4,6.4,3.4,14.9.1,20.7a40.74,40.74,0,0,1-13,14.7c-.1,0-.3.1-.4.1a.9.9,0,0,1-1-.7c-1.1-7.7-2.5-15.6-4.3-23.4-1.7-7.3,7.3-14.6,13.2-19.1.4-.3.3-.4-.1-.6-6.9-1.4-12.6-.8-19.6,1.7-12.1,4.3-28,9.7-37.8-2.4a146.13,146.13,0,0,1-14.2-21.3v-.3c0-.3.1-.4.4-.4h29.3c13.3.1,16.3,14,27,16.1,9.7,2,16,2.2,24-4.8a2.23,2.23,0,0,1,1.3-.6c8-.8,15.4-4.6,23.5-5.7.4-.1.6-.3.1-.6a217.57,217.57,0,0,1-35-38c-6.9-9.5-17.7-12.2-25.2-18.1-12.2-9.4-17.5-22.4-16.3-39.1a11.09,11.09,0,0,1,3.4-7.3,2.23,2.23,0,0,1,1.3-.6,5.62,5.62,0,0,1,4.8,2.2,95.5,95.5,0,0,0,22.6,20.9c6,3.9,8.7,7.7,10.9,14.2,2.9,8.4.3,18.5,6,26.2a73.81,73.81,0,0,0,5.5,6.6,374.41,374.41,0,0,0,47.6,42.7"/><path class="cls-2" d="M493,94.21c1.4,3.8.6,8.8,1.1,13v.7a1.72,1.72,0,0,1-2.1,1.3c-7.8-2-13.9-1.3-21-7-8.7-7-6.3-22.8-3.8-32.7,0-.4.4-.6.8-.6a6.73,6.73,0,0,1,4.9,2.7C479.46,80.11,489.46,85.11,493,94.21Z"/><path class="cls-2" d="M666.86,308.21c12.1,9.4,22.7,13.5,37.4,10.5a2.33,2.33,0,0,0,1.3-.7,2.42,2.42,0,0,0,0-3.5c-10.5-10.5-1.7-24.4,2.2-35.5a1.55,1.55,0,0,1,.8-1.1c5.9-3.8,9.7,11.4,10.5,15.1,2.1,9,1.1,14.9-5.3,21.2a1.45,1.45,0,0,0-.1,2.5.78.78,0,0,0,1.1.1c3.4-2.1,29.8-17.9,29.6-4.9a91.54,91.54,0,0,0,.7,12.8c.8,7.7-9,2-12.2-.1-5-3.4-8.4-4.6-13.9-2.4h0a.67.67,0,0,0-.3.8c2,3.6,6.2.7,9.5,2.8a96.56,96.56,0,0,1,9.1,7.1c5.3,4.3,6.2,18.9,7.1,25.6a2.29,2.29,0,0,1-1.4,2.4c-1.1.4-2.8-1.3-3.6-1.8-12.2-9.5-19.1-16-22.3-30.4a1.11,1.11,0,0,0-.8-1.1,25.64,25.64,0,0,0-19.8-.1c-1.8.7-1.8,1.4-.3,2.4,23.4,13.9,38.8,40.5,48.1,65.3.4,1.3,1.3,15-1.8,14.7a1.71,1.71,0,0,1-1.5-1.3c-6.9-22.6-18.4-47.2-35.9-63.3-17.1-15.6-38.4-26.2-57.6-38.4a6,6,0,0,0-2.5-3.8,1.5,1.5,0,0,1-.4-1.1c.4-3.5-4.5-7.3-8.4-10.8a1.69,1.69,0,0,1-.7-1l-.4-1.1a2.29,2.29,0,0,0-.7-1c-3.8-3.1.4-7-2-11.8-.6-1.1-.4-3.1.4-6.2C639.36,287.81,652.86,297,666.86,308.21Z"/><path class="cls-2" d="M618.26,279.51a2.1,2.1,0,0,1,1.1.8l2,4.1a2.1,2.1,0,0,0,1.1.8,1.7,1.7,0,0,0,1,0,2.23,2.23,0,0,1,1.3.3,4.59,4.59,0,0,1,2.5,5.3,2.12,2.12,0,0,0,.4,1.4l2.7,3.4a1.28,1.28,0,0,1,.4,1l.4,3.6a1.18,1.18,0,0,0,1.1,1.1l6.7.6a1.74,1.74,0,0,1,1.1.6l4.2,3.9c1.7,3.9,3.2,7.7,4.8,11.5,2.7,6.6-5.6,17-9.8,22a65.85,65.85,0,0,0-9.5,14.3c-9.8,19.5,8.4,30.6,24.4,33.8a3.54,3.54,0,0,0,2.7-.6c5.2-3.8,10.4-7.6,15.4-11.4,5.2-3.8,11.1-4.2,17.1-3.9,3.2.1,3.8,1.3,2.7,4.3-4.6,12.3-12.8,20.5-26.3,14.2a1.38,1.38,0,0,0-1.1.1,1,1,0,0,0-.3,1.5c4.1,5.7,9.9,7.7,17.4,10.2,4.6,1.7,11.9,2.8,15.3,5.3,6.7,4.8,7.6,17.1,6,24.5a1.74,1.74,0,0,1-.6,1.1,2.3,2.3,0,0,1-3.1,0,120.15,120.15,0,0,0-9.8-9,40,40,0,0,1-11.9-15.1c-1.5-3.4-3.6-4.9-5.9-7.7-.1-.1-.4-.3-.6-.1a.52.52,0,0,0-.3.7c2.7,6.3,7.8,14.3,4.8,22a82,82,0,0,0-3.9,12.5,2.15,2.15,0,0,1-.4.7,1.34,1.34,0,0,1-2,0c-6.9-7-10.8-10.8-8.1-21.2.8-3.5,3.6-11.6,1.1-14.6-6.7-8-16.8-7.1-26.2-10.7-.1-.1-.3,0-.4,0s-.3.4-.1.6c3.4,5.2,6.4,10.7,9.4,16.3a19.31,19.31,0,0,0,4.2,6,1.9,1.9,0,0,1,.7,1.1c1.3,6.4,2.8,13,4.5,19.5,2.1,8-3.9,12.3-3.5,19.2.3,4.1,1.3,8.1.7,11.8-1.5,10-13.3,20.2-22.1,27a18,18,0,0,1-4.9,2.9.82.82,0,0,1-1-.4c-1.7-4.5,2.8-18.1,4.6-24.9,2.5-9.1,13-11.4,16.3-20.3a34.86,34.86,0,0,0,1.8-13.3h0a.66.66,0,0,0-.7-.6c-9.5,1.5-13,17.8-26.5,12.6-4.2-1.7-8.7-3.1-13.5-4.5-.1-.1-.1-.1-.3-.1a2.48,2.48,0,0,1-1.3-3.1c1.7-4.1,15.4-8.4,19.6-10.1,6.9-2.8,11.9-3.8,17.2,1.7a2.39,2.39,0,0,0,1.3.7,2.29,2.29,0,0,0,2.7-1.8c2.1-10.9-9.1-25.9-16.3-33.1-6.3-6.2-9.4-9.4-9.5-9.5-14-18.6.1-42,12.6-57,3.9-4.9,4.3-9.5,1.1-14.2-8.1-11.4-15-22.3-17.7-36.3C615.56,280.21,616.56,279.91,618.26,279.51Z"/><path class="cls-2" d="M208.46,443.21c.7,3.6,6.3,2.5,4.8,8-19.5,7.3-41.9,16.3-55.9,29.7a1.74,1.74,0,0,0-.6,1.1c-.7,4.6-.6,8.8,2.7,12.8,7.4,8.7,7.8,18.6,1.1,29.8l-.4.4a1.5,1.5,0,0,1-2.2-.3,101.08,101.08,0,0,1-10.5-15.6c-4.9-8.8-.1-14.6,4.2-22a2,2,0,0,0,0-1.1,1.22,1.22,0,0,0-1.5-.6c-8.4,3.9-14.7,10.2-21.6,16.5-4.2,3.9-9.8,7.8-14.6,8.7-2.5.4-19.8,4.8-20.5,4.3a1.13,1.13,0,0,1-.3-1.1c4.3-8.5,9.1-22,19.2-25.1,1.4-.4,5.2-.8,11.4-1,16.8-.6,26.2-7.8,38.7-18.1a1.28,1.28,0,0,0,.4-1,.83.83,0,0,0-1.1-.8c-6.6,1-13.3,3.6-19.5,4.6-13.9,2.1-27.7,4.2-41.6,6-11.6,1.5-19.9,7.3-24.5,17.1-2.8,6-3.1,14-6.6,20.2-3.4,6-6.9,11.8-10.8,17.5a1,1,0,0,1-1.1.3c-2-1-4.8-15.4-5.2-18.1-2-10.8,6.4-20.6,15.7-24.9a120.88,120.88,0,0,0,17.7-10.2c.3-.3.4-.4.4-.7a1,1,0,0,0-.8-1.1c-7.7-1.4-17.7-.7-23.1-.7s-11.4-1-16.1,1.8c-9.5,5.5-19.2,7-29.3,4.5-5.7-1.4-17.5-10.9-16.5-18.1a.94.94,0,0,1,1-1,175.06,175.06,0,0,0,20.5-1.5c12.2-1.7,18.6,2.5,28.9,8.1,5.5,2.9,13.9,1.8,19.8,1,.6,0,.6-.1.1-.4-8-4.8-17.5-16.8-13.2-26.9.1-.1.1-.3.3-.4a1.59,1.59,0,0,1,2.2-.3c2.7,2,5.2,4.1,7.7,6.2,4.5,3.8,11.4,7.6,16,13.5a1.84,1.84,0,0,1,.4,1.3l-.4,6.2v.4a2.14,2.14,0,0,0,2.4,1.8c20.9-2.8,43.3-5,62.1-9.9a224.42,224.42,0,0,0,59.3-25.2A32,32,0,0,1,208.46,443.21Z"/><path class="cls-2" d="M232.46,501.31a178.31,178.31,0,0,1-16.1-17.4c-5-6.3-1.5-15,3.2-20a.1.1,0,0,1,.1-.1c.1-.1.6-.1.7.1a99,99,0,0,0,9.2,11.9c2.5,2.7,4.2,5,4.9,7.1,1.5,4.6,3.5,15-1.3,18.4C233,501.61,232.76,501.51,232.46,501.31Z"/><path class="cls-2" d="M546.36,531.81a205.78,205.78,0,0,0-35.3,24.1c-24.1,21-34.1,54.2-47.4,81.8a65.52,65.52,0,0,0-3.4,8.1,1.09,1.09,0,0,1-.8.8,55,55,0,0,0-13.3,6.3,87.23,87.23,0,0,1-24,11.4c-2.2.6-5.7,2.7-10.4,6.3s-10.8,6.9-15.3,8q-14.25,3.6-29.4,8.4a1.38,1.38,0,0,1-1.1-.1,1.17,1.17,0,0,1-.3-1.7c11.5-15.7,15.3-32,39.7-24.9,11.9,3.4,18.6-2,28.9-5.6,2.2-.8,3.5-2.4,5-4.2a.1.1,0,0,0,.1-.1c.1-.3,0-.4-.3-.6a4.74,4.74,0,0,0-3.1-.1,45,45,0,0,1-23.5,2.2c-6.6-1.1-12.3-14.6-14-20.3v-.1a.55.55,0,0,1,.6-.4,188,188,0,0,0,22.6,1c13.7-.4,14.6,6.7,23.8,13.3a1.08,1.08,0,0,0,1.1,0,27.53,27.53,0,0,0,10.4-10.2q6.75-12.6,17.1-37.8a122.34,122.34,0,0,1,44.6-55.6c.4-.3.3-.4-.1-.6-5.6-1.3-17.4-4.6-21.3,1-2.8,4.2-3.1,10.1-6,14.3-4.5,6.3-12.2,11.8-18.2,17.1a2.2,2.2,0,0,1-1.5.6,1.9,1.9,0,0,1-1.8-2.2c1.4-13.9,1.7-24.5,15.1-32.5,3.5-2.1,7.8-1.7,11.9-3.9.6-.1.4-.3,0-.4-15.7-2.5-30.4,15.6-48.3,8.8-4.3-1.5-18.1-7.1-7-12.3,7-3.2,14.3-6.2,21.6-8.7,14.4-5,23-2.1,34.8,6.4a3.46,3.46,0,0,0,3.1.3h0a1.18,1.18,0,0,0-.1-1c-11.4-9.1-7.3-24.9-1-35.9,1.4-2.4,3.4-3.1,5.9-2.2a1.59,1.59,0,0,1,1,.8c5.3,13.7,12.2,26.9,1.7,36.7-2.2,0-.4,3.1.7,3.5a53.26,53.26,0,0,0,23.5-1.4c9-2.5,18.9-12.3,26.2-18.2a4.72,4.72,0,0,1,1.8,4.6.86.86,0,0,0,.6.7l5.5,1.3c.3,0,.6.4.6.7v.7C560,523.51,553.06,528.41,546.36,531.81ZM423.26,646h0c3.2.1,5.9-.6,5.9-1.4s-2.5-1.7-5.7-1.8h0c-3.2-.1-5.9.6-5.9,1.4S420.06,645.81,423.26,646Z"/><path class="cls-2" d="M579,536a1.9,1.9,0,0,0-.1,1.3,14.84,14.84,0,0,0,.8,2.8c9.1,16.4,26.9,35.2,18.6,55.4-3.1,7.3-9.1,12.5-15.1,18.6-6.2,6.3-11.1,14.7-14.7,25.1-1.3,3.6,0,6,3.8,7.1a2,2,0,0,0,1.3-.1c4.8-2.9,6.3-5.9,12.6-3.5a237.14,237.14,0,0,1,24.2,10.7,2.68,2.68,0,0,1,1,1.3,2,2,0,0,1-1.4,2.4,135.85,135.85,0,0,0-14,4.8c-12.9,5-17.9-6.9-26.8-13a1.14,1.14,0,0,0-.7-.3,1.42,1.42,0,0,0-1.4,1.3,29.48,29.48,0,0,0,4.5,16.8c4.8,7.6,13.7,10.9,15.4,20.5,1.1,6.6,2.2,13,3.5,19.6a2.23,2.23,0,0,1-.4,1.8,2.12,2.12,0,0,1-3.1.3c-8.1-6.6-21.7-17.8-24.2-28.6a38.2,38.2,0,0,1-.1-8.8,30.52,30.52,0,0,0-1.3-11.6c-5.3-18.6,5.5-38.4,17.1-51.9,1.4-1.5,1-2.1-1-1.8l-17.5,2.7a2.38,2.38,0,0,0-1.1.6,33.87,33.87,0,0,0-7.7,9.1c-4.3,7.3,7.4,13.5,2.8,20.5-2.2,3.4-7.7,15.1-12.6,11.2a1.51,1.51,0,0,1-.7-1.1c-.8-6.3-1.7-12.6-2.7-18.8-.6-3.2,4.2-9.2,5.7-12.3V618a.63.63,0,0,0-.4-.8,2,2,0,0,0-2.7,1.1c-3.8,5.7-6.6,11.6-11.6,16.3-4.8,4.3-9.7,8.5-15,12.6-1.8,1.4-2.9,1-3.2-1.3-1.8-11.2-.3-22.1,12.2-26.1,7.7-2.5,15.1-5.5,22.7-8.4a2.71,2.71,0,0,0,1.1-1,11.42,11.42,0,0,1,5.5-4.9c.4-.3.6-.6,0-.8-4.3-2.7-12.9,7.8-22.3-1.3-2.9-3.1-9.5-11.2-8-15.7a1.89,1.89,0,0,1,1-.8c15-4.1,23.4,7.3,34.6,14.3a5,5,0,0,0,1.3.3c10.7-.8,23.7-7,27.7-17.5,3.5-9.4-5.3-22.1-11.4-29.7-7.8-9.9-15.4-18.2-6.9-31a10.72,10.72,0,0,1,5,1.4c6.3,3.5,13-6,14.4-10.7.7-2.2,2.7-3.5,5.7-3.6C589.36,519.11,582.76,526.41,579,536Z"/><path class="cls-3" d="M508.76,531.31c-1-.6-2.8-3.5-.7-3.5Z"/></g></g></svg>