<svg xmlns="http://www.w3.org/2000/svg" viewBox="0 0 745.11 709.07"><defs><style>.cls-1{fill:none;}.cls-2{fill:#fff;}.cls-3{fill:#171718;}</style></defs><title>Recurso 2</title><g id="Capa_2" data-name="Capa 2"><g id="Capa_1-2" data-name="Capa 1"><path class="cls-1" d="M112.35,270.33c-6.6,17.5-20,26.8-33.9,37.6-12.1,9.4-22.7,13.5-37.4,10.5a2.49,2.49,0,0,1-2-2.9,3.35,3.35,0,0,1,.7-1.3c10.5-10.5,1.7-24.4-2.2-35.5a2.1,2.1,0,0,0-.8-1.1c-5.9-3.8-9.5,11.4-10.5,15.1-2.1,9-1.1,14.9,5.3,21.2a1.46,1.46,0,0,1,.1,2.5.9.9,0,0,1-1.1.1c-3.4-2.2-29.8-18.1-29.6-4.9a78.5,78.5,0,0,1-.7,12.8c-1,7.7,9,1.8,12.2-.1,5.2-3.4,8.4-4.6,13.9-2.4.3.1.6.6.4.8h0c-2,3.8-6.2.7-9.5,2.8a96.56,96.56,0,0,0-9.1,7.1c-5.2,4.5-6.2,18.9-7.1,25.6a2.29,2.29,0,0,0,1.4,2.4c1.1.4,2.8-1.1,3.6-1.8,12.2-9.5,19.2-16,22.3-30.4a2.1,2.1,0,0,1,.8-1.1,25.64,25.64,0,0,1,19.8-.1c1.7.7,1.8,1.4.3,2.4-23.4,14-38.8,40.5-48.1,65.3-.4,1.3-1.4,14.9,1.8,14.7a1.69,1.69,0,0,0,1.5-1.3c6.9-22.6,18.4-47.2,35.9-63.3,17-15.7,38.3-26.3,57.6-38.4"/><path class="cls-1" d="M97.55,307.23c1.5-1.7,2.7-2,3.6-.4"/><path class="cls-1" d="M101.25,306.63c-1.7,3.9-3.4,7.8-4.8,11.5-2.7,6.6,5.6,17,9.8,22a69.7,69.7,0,0,1,9.5,14.3c9.7,19.5-8.5,30.6-24.4,33.8a3.75,3.75,0,0,1-2.7-.6c-5.2-3.8-10.2-7.6-15.4-11.4s-10.9-4.2-17.1-3.9c-3.4.1-3.9,1.3-2.7,4.3,4.6,12.3,12.8,20.5,26.3,14.2a1.07,1.07,0,0,1,1.5.6,1.38,1.38,0,0,1-.1,1.1c-4.1,5.7-9.9,7.7-17.4,10.2-4.8,1.7-11.9,2.8-15.3,5.3-6.7,4.9-7.6,17.2-6,24.5a2.15,2.15,0,0,0,2.7,1.7,2.38,2.38,0,0,0,1.1-.6,104.52,104.52,0,0,1,9.8-9A43.79,43.79,0,0,0,68,409.53c1.5-3.2,3.6-4.9,5.9-7.7a.38.38,0,0,1,.7,0c.1.1.3.4.1.6-2.7,6.4-7.8,14.3-4.8,22a101,101,0,0,1,3.9,12.5,1.27,1.27,0,0,0,1.5,1c.3,0,.4-.1.7-.4,6.9-7,10.8-10.8,8.1-21.2-1-3.5-3.6-11.6-1.1-14.6,6.7-8,16.8-7.1,26.2-10.7.3-.1.4,0,.6.3v.4c-3.4,5.2-6.4,10.7-9.4,16.3a19.31,19.31,0,0,1-4.2,6,2.59,2.59,0,0,0-.7,1.1c-1.3,6.6-2.8,13-4.5,19.5-2.1,8,3.9,12.3,3.5,19.2-.3,4.1-1.3,8.1-.7,11.8,1.5,9.9,13.3,20.2,22.1,27a18,18,0,0,0,4.9,2.9,1,1,0,0,0,1-.4c1.8-4.3-2.7-17.9-4.6-24.9-2.5-9.1-13-11.4-16.3-20.3a33,33,0,0,1-1.8-13.3.67.67,0,0,1,.7-.6h0c9.5,1.5,13,17.9,26.5,12.6,4.2-1.5,8.5-3.1,13.5-4.5a2.44,2.44,0,0,0,1.7-2.9c0-.1,0-.1-.1-.3-1.7-4.1-15.4-8.4-19.6-10.1-6.9-2.8-11.9-3.8-17.2,1.7a2.08,2.08,0,0,1-3.2,0,2.33,2.33,0,0,1-.7-1.3c-2.1-10.9,9.1-25.9,16.3-33.1l9.5-9.5c14-18.6-.1-42-12.6-57-4.1-4.9-4.5-9.5-1.1-14.2,8.1-11.5,15-22.3,17.7-36.3"/><path class="cls-1" d="M130.15,281.33c1.1-6.3,2-12.6,2.7-19.1.4-3.9-.7-8-.1-12.1,0-.4.4-.7,1-.7.3,0,.4.1.6.4a270.69,270.69,0,0,1,28.4,60.7c5.9,17.9,12.3,35.9,19.2,53.5a5.72,5.72,0,0,1,.1,1.4c-6.9,39.4-41.5,67.4-37.8,110.6,1.1,13,2.2,22.8,7.4,34.1"/><path class="cls-1" d="M151.55,510c4.2,9.2,10.8,16.4,14.7,25.6a1.9,1.9,0,0,1,.1,1.3c-.3,1.4-.7,2.2-.8,2.8-9.1,16.4-26.9,35-18.6,55.4,2.9,7.3,9,12.5,15.1,18.6,6.3,6.3,11.2,14.7,14.7,25.1,1.3,3.6,0,6-3.8,7.1a3,3,0,0,1-1.3-.1c-4.8-3.1-6.3-6-12.6-3.5a258.32,258.32,0,0,0-24.2,10.7,1.87,1.87,0,0,0-.8,2.7,2.68,2.68,0,0,0,1.3,1c4.6,1.4,9.4,2.9,14,4.8,12.9,5,17.8-6.7,26.8-13a1.28,1.28,0,0,1,1.8.3c.1.3.3.4.3.7a29.27,29.27,0,0,1-4.5,16.8c-4.9,7.7-13.7,10.9-15.4,20.5-1.1,6.4-2.4,13-3.5,19.6a2,2,0,0,0,1.8,2.5,2.23,2.23,0,0,0,1.8-.4c8.1-6.7,21.9-17.9,24.2-28.6a38,38,0,0,0,.1-8.8,41.33,41.33,0,0,1,1.3-11.6c5.3-18.6-5.5-38.4-17.1-51.9-1.3-1.5-1-2.1,1-1.8l17.5,2.7c.4,0,.7.3,1.1.6a35.17,35.17,0,0,1,7.7,9.1c4.3,7.3-7.4,13.5-2.8,20.5,2.2,3.4,7.7,15.1,12.6,11.2a1.9,1.9,0,0,0,.7-1.1c.8-6.3,1.7-12.5,2.7-18.8.4-3.2-4.2-9.2-5.7-12.3a.63.63,0,0,1,.3-.8h.1a2.06,2.06,0,0,1,2.7,1.1c3.8,5.7,6.6,11.6,11.6,16.3,4.6,4.3,9.7,8.4,15,12.6,1.8,1.4,2.8,1,3.2-1.3,1.8-11.2.3-22.1-12.2-26.1-7.7-2.4-15.1-5.5-22.7-8.4-.4-.1-.8-.6-1.1-1a11.88,11.88,0,0,0-5.5-4.9c-.6-.3-.6-.6,0-.8,4.3-2.5,12.9,8,22.3-1.3,3.1-2.9,9.5-11.1,8-15.7a1.09,1.09,0,0,0-1-.8c-15-4.1-23.4,7.3-34.6,14.3a1.52,1.52,0,0,1-1.3.3c-10.7-.8-23.7-7-27.7-17.5-3.5-9.2,5.3-22.1,11.4-29.7,8-9.9,15.4-18.2,6.9-31"/><path class="cls-1" d="M176.75,522.93c-.3-.7-1.3-5.6,1.4-3.2"/><path class="cls-1" d="M178.15,519.83c7,3.8,13.9,8.8,20.3,12.3,14.2,8,25.9,16,35.3,24.1,24.1,21,34.1,54.2,47.4,81.8a54.84,54.84,0,0,1,3.4,8.1,1.09,1.09,0,0,0,.8.8,59.11,59.11,0,0,1,13.3,6.3,87.23,87.23,0,0,0,24,11.4c2.2.7,5.7,2.8,10.4,6.3,4.5,3.5,10.7,7,15.3,8q14.25,3.3,29.4,8.4a1.29,1.29,0,0,0,1.5-.7,2.08,2.08,0,0,0-.1-1.1c-11.5-15.6-15.1-32-39.7-24.9-11.9,3.5-18.6-2-28.9-5.6-2.2-.8-3.5-2.5-5-4.2a.85.85,0,0,1,0-.7l.1-.1a4.75,4.75,0,0,1,3.1-.1,45,45,0,0,0,23.5,2.2c6.7-1.1,12.3-14.6,14-20.3.1-.3,0-.6-.3-.6h-.1a189.89,189.89,0,0,1-22.6,1c-13.7-.3-14.6,6.7-23.8,13.3a.78.78,0,0,1-1.1,0c-4.9-3.1-8.3-6.4-10.4-10.2q-6.75-12.6-17.1-37.8a122.34,122.34,0,0,0-44.6-55.6c-.4-.3-.3-.4.1-.6,5.6-1.4,17.4-4.6,21.3,1,2.9,4.2,3.1,10.1,6,14.3,4.5,6.3,12.2,11.8,18.2,17.1a2.05,2.05,0,0,0,2.9-.1,2.2,2.2,0,0,0,.6-1.5c-1.4-13.9-1.8-24.5-15.1-32.5-3.5-2.1-7.8-1.7-11.9-3.9-.4-.3-.4-.4,0-.4,15.8-2.5,30.4,15.6,48.3,8.8,4.2-1.5,18.1-7.3,7-12.3-7-3.2-14.3-6.2-21.6-8.7-14.4-5-23-2.1-34.8,6.4a3.46,3.46,0,0,1-3.1.3.67.67,0,0,1,0-1h0c11.2-9.1,7.3-24.9,1-35.9-1.3-2.2-3.2-2.9-5.9-2.2a1.59,1.59,0,0,0-1,.8c-5.2,13.7-12.2,26.9-1.7,36.7"/><path class="cls-1" d="M237.05,527.93l-.7,3.5"/><path class="cls-1" d="M236.35,531.33a53.26,53.26,0,0,1-23.5-1.4c-9-2.5-18.9-12.3-26.2-18.2"/><path class="cls-1" d="M186.55,511.73c-16.7-12.5-31-33.9-21.2-55.1a285.72,285.72,0,0,1,30.4-50.5,2.06,2.06,0,0,1,2.8-.4l.1.1a125.13,125.13,0,0,0,62.5,33.6.48.48,0,0,1,.4.7v.1a134.75,134.75,0,0,1-7,17.2c-2.7,5.5-2,10.8-1,16.5.8,4.8,12.6,2.4,15,.6,6-4.5,12.5-33.4,17.1-33.5,11.5-.4,26.1-.1,43.7,1,18.1,1.1,33.5,6.3,46.4,15.3,13.5,9.5,38.7,29.3,38.4,47.4a2,2,0,0,1-.4,1.3c-3.5,5.3-7,9.5-13.3,12.1-7.7,3.1-20.6,5.5-20.2,17,.3,7,.3,14.2-.1,21.2a.86.86,0,0,0,.6.7.6.6,0,0,0,.4-.1c5.9-5.5,13.7-10.8,18.4-17.1,3.6-4.9,2-10.4,5.3-15.1a79.31,79.31,0,0,1,9-10.8,1.35,1.35,0,0,1,1.7,0,1,1,0,0,1,.3,1c-1.4,11.4-3.8,22.3-4.1,33.6-.1,10.7-8.8,17.7-10.4,27.9a3.33,3.33,0,0,0,.1,1.4l9.7,22.4a2,2,0,0,0,2.7,1,1.06,1.06,0,0,0,.7-.6c6.3-7.3,12.2-21.6,8-31.4a95.18,95.18,0,0,0-9.2-16.5c-.3-.4-.1-.4.3-.3,5.6,2.7,15.6,8.4,17.4,14.6a147.08,147.08,0,0,0,15,33.5,1.69,1.69,0,0,0,1.7.7c4.1-1,7.7-16.4,8-20,1.1-10.8-6.6-15.4-15.8-19.2a71.09,71.09,0,0,1-18.5-11.1c-7.3-6-2.7-16.8.6-23.5a55.33,55.33,0,0,0,5.2-27.7,1.29,1.29,0,0,1,1.1-1.3,1.49,1.49,0,0,1,.6.1,110.19,110.19,0,0,0,28.2,8.5c24.9,4.2,57.6,9.5,62.6,39.4.4,2.7-.1,6.9-1.5,8.8a187,187,0,0,0-15,24.9c-2.9,5.9-9.8,13.5-8.3,19.9.8,3.5,4.6,17.1,7.4,18.9a1.59,1.59,0,0,0,2.1-.4.1.1,0,0,1,.1-.1,138,138,0,0,1,8.1-15.8c5.7-9.4-4.2-21.2.8-31.5,2.4-4.8,4.9-9.5,7.7-14.3a1,1,0,0,1,1.3-.3,1.54,1.54,0,0,1,.4.6c5.9,19.1,19.3,25.5,32.4,38.5a1.19,1.19,0,0,1,.4,1.3c-.6,13.9-14.7,20-2.8,35.2a2.21,2.21,0,0,0,3.1.4c.1-.1.3-.1.3-.3a68.65,68.65,0,0,0,10.4-17.5c2.9-7.3-3.4-13.2-8-17.7a1.12,1.12,0,0,1,0-1.8,1.5,1.5,0,0,1,1.1-.4c6.9.8,12.5,2.1,18.6,5.7,9.1,5.3,20.3,10.9,31.3,6a93.48,93.48,0,0,0,16.4-9.4,2.25,2.25,0,0,0,.6-3.1,4.37,4.37,0,0,0-.8-.7c-11.2-5.3-25.5-10.1-38.3-4.8-16.7,6.9-36.3-2.4-47.5-14.9-5.2-5.7-8.1-13.6-11.8-20.7a.52.52,0,0,1,.3-.7c.1-.1.3,0,.4,0,7.1,4.6,10.9,11.6,16.1,18.2,7.4,9.4,23.7,11.8,34.6,13a1.57,1.57,0,0,0,1.7-1.4,2,2,0,0,0-.3-1.1c-4.9-6-9.5-12.1-14.2-18.1-7.3-9.7-19.2-2.8-27.5-9.1-2.5-2-5.5-3.5-6.4-6.7a1.24,1.24,0,0,1,.8-1.5c.1,0,.4-.1.6,0,5.7,1.1,9.7,4.8,14,5.7,9.1,1.8,17.9-6.2,22.4-13a1.64,1.64,0,0,0-.6-2.4,3.81,3.81,0,0,0-1-.3,126.82,126.82,0,0,1-22.3-1c-2.5-.3-5.3.4-8.5,2.1a5.24,5.24,0,0,0-1.1,1c-1.8,3.2-4.5,4.1-8,2.5a2,2,0,0,1-1-1c-8.7-17-22.3-28.2-40.6-33.6-12.3-3.6-23.1-4.8-34.6-7.8-14-3.6-25.6-13-34.9-23.7-13.3-15.6-25.6-29-43.3-39.9-.1-.1-.3-.4-.1-.6,0-.1.1-.1.3-.1a40.24,40.24,0,0,1,10.4-.8c24,.4,48.1.8,71.5-4.6a4.58,4.58,0,0,1,2-.1c.3,0,.4.3.4.6a1,1,0,0,1-.1.3c-6.4,4.8-14.3,10.5-18.1,17.4a11.87,11.87,0,0,1-3.5,3.9,125.63,125.63,0,0,0-19.2,16.7,1.06,1.06,0,0,0,0,1.4.85.85,0,0,0,.6.3c8.3,1.3,16.3-5.3,22.8-9.7a1,1,0,0,1,1.3.3,2.49,2.49,0,0,1,.1.8c-1.3,3.4-.7,6.2,2,8.4a2.85,2.85,0,0,0,1.4.6,19.34,19.34,0,0,0,14.4-6.3c4.3-4.3,13-12.5,25.8-24.2a23.67,23.67,0,0,1,4.6-2.8,1.9,1.9,0,0,1,1.3-.1c10.5,3.2,28.2,9.5,32.5,22.1,1.5,4.5,3.2,6.6,7.3,8.3a2.1,2.1,0,0,1,1.1.8c1.1,1.7,1.8,2.9,1.8,4.1a19.43,19.43,0,0,0,5.7,12.9c2.4,2.4,10.8,11.2,14,10.9a1.42,1.42,0,0,0,1.3-1.4c0-8.7-1.3-22.7-9.4-28-4.1-2.7-10.8-4.1-14-7.6-.8-.8-4.2-5-3.5-6.2a.7.7,0,0,1,1-.4l1.7.4"/><path class="cls-1" d="M531.75,451.13c19.6,7.3,41.9,16.3,55.9,29.7a1.74,1.74,0,0,1,.6,1.1c.7,4.6.6,8.8-2.7,12.8-7.4,8.7-7.8,18.6-1.1,29.8a1.61,1.61,0,0,0,2.2.6l.4-.4a117.72,117.72,0,0,0,10.5-15.6c4.9-8.8.1-14.6-4.2-22a1.1,1.1,0,0,1,1.5-1.5c8.4,3.9,14.7,10.2,21.6,16.5,4.2,3.9,9.8,7.8,14.6,8.7,2.4.4,19.6,4.8,20.5,4.3a1,1,0,0,0,.3-1.1c-4.3-8.7-9.1-22-19.2-25.1-1.4-.4-5.2-.7-11.4-1-16.8-.6-26.2-7.7-38.7-18.1a1,1,0,0,1-.1-1.5,1.28,1.28,0,0,1,1-.4c6.6.8,13.3,3.6,19.5,4.6,13.9,2.2,27.7,4.2,41.6,6,11.6,1.5,19.8,7.3,24.5,17.1,2.8,6,3.1,13.9,6.6,20.2,3.4,6,6.9,11.8,10.8,17.5.3.4.7.6,1.1.3,2-1,4.6-15.4,5.2-18.1,2-10.8-6.4-20.6-15.7-24.9a115.89,115.89,0,0,1-17.7-10.2,1,1,0,0,1-.3-1.3.67.67,0,0,1,.7-.4c7.7-1.3,17.7-.6,23.1-.7s11.2-.8,16.1,1.8c9.5,5.5,19.3,6.9,29.3,4.5,5.7-1.4,17.5-11.1,16.5-18.1-.1-.6-.6-.8-1-1a199.77,199.77,0,0,1-20.5-1.5c-12.3-1.7-18.8,2.7-28.9,8.1-5.3,2.9-13.7,1.8-19.8,1-.4,0-.4-.3-.1-.4,8-4.8,17.5-16.8,13.2-26.9a1.62,1.62,0,0,0-2.1-.8,1,1,0,0,0-.3.1c-2.7,2.1-5.2,4.1-7.7,6.2-4.5,3.8-11.5,7.6-16,13.5a2,2,0,0,0-.4,1.3l.4,6.2a2.11,2.11,0,0,1-2,2.2h-.4c-20.9-2.9-43.3-5-62.1-9.9a224.42,224.42,0,0,1-59.3-25.2"/><path class="cls-1" d="M538,438.93a16,16,0,0,0-1.4,4.2c-.7,3.6-6.3,2.4-4.8,8"/><path class="cls-1" d="M186.55,511.73a4.72,4.72,0,0,0-1.8,4.6c0,.4-.1.7-.6.7l-5.5,1.3a.86.86,0,0,0-.6.7v.7"/><path class="cls-1" d="M176.75,522.93a8.8,8.8,0,0,0-5,1.4c-6.3,3.5-12.9-6-14.4-10.7-.7-2.2-2.7-3.5-5.7-3.6"/><path class="cls-1" d="M130.15,281.33a3.09,3.09,0,0,0-2.9-1.1,1.11,1.11,0,0,0-1.1.8l-2,4.1a2.1,2.1,0,0,1-1.1.8h-1a1.67,1.67,0,0,0-1.3.3,5,5,0,0,0-2.5,5.3,1.42,1.42,0,0,1-.4,1.4l-2.7,3.4a1.28,1.28,0,0,0-.4,1l-.4,3.6c0,.6-.6,1-1.1,1.1l-6.7.6a1.74,1.74,0,0,0-1.1.6l-4.2,3.9"/><path class="cls-1" d="M97.55,307.23a6,6,0,0,1,2.5-3.8c.3-.3.6-.7.4-1.1-.4-3.5,4.5-7.3,8.4-10.8a2.29,2.29,0,0,0,.7-1l.4-1.1a2.29,2.29,0,0,1,.7-1c3.8-3.2-.4-7.1,2-11.8.6-1,.3-3.1-.4-6.2"/><path class="cls-1" d="M236.35,531.33c1.1-.4,2.9-3.5.7-3.5"/><path class="cls-1" d="M272.25,71.83c-6.6,8.4-16.5,13.5-20,22.7-1.4,3.8-.7,8.8-1.1,13a1.87,1.87,0,0,0,1.5,2h.7c7.8-2.1,13.9-1.4,21-7,8.7-7,6.3-22.8,3.8-32.7-.1-.4-.4-.7-.8-.6a6.73,6.73,0,0,0-5.1,2.6"/><path class="cls-1" d="M511.85,501.43a1.1,1.1,0,0,0,.8,0,166.71,166.71,0,0,0,16.1-17.4c5-6.2,1.7-15-3.2-20-.1-.3-.6-.3-.8,0l-.1.1a99,99,0,0,1-9.2,11.9,23.27,23.27,0,0,0-4.9,7.1c-1.6,4.6-3.5,15,1.3,18.3"/><path class="cls-2" d="M296.05,674.93c4.3,10.8,12.9,17,21.2,24.7a4.38,4.38,0,0,0,2.7,1.5,2.09,2.09,0,0,0,2.5-1.7V699c.3-8-.8-17.5-6.2-23.7-4.5-5-13.9-8.7-18.9-12.9a38.93,38.93,0,0,1-10.2-12.9c-.8-1.5-1.5-1.5-2.1.1a2.13,2.13,0,0,0,0,.8c4.1,8.5,7.8,16.7,11,24.5"/><path class="cls-1" d="M372.55,280.43c.4-.7-.3-1.8-1.5-2.4h0c-1.3-.6-2.5-.6-2.8.1h0c-.4.7.3,1.8,1.5,2.4h0c1.1.6,2.4.6,2.8-.1h0"/><path class="cls-1" d="M296.55,363.73l3.4,1.7c.6.3.7.1.7-.4-.7-4.5,3.1-2.7,4.5-5,.3-.6.1-.8-.4-.8a14,14,0,0,0-8.1,3.1.9.9,0,0,0-.1,1.4c-.2-.2-.1,0,0,0"/><path class="cls-1" d="M294.35,375.93c2.2,1.3,8.4-2.8,10.2-4.1,4.2-3.1,8.5-4.8,12.6-7.8a.78.78,0,0,0,.1-1.1.1.1,0,0,0-.1-.1l-.6-.4a1,1,0,0,0-1.3,0c-7.8,4.3-12.1,9.7-21.7,12.9-.6.1-.6.4-.1.7a2.77,2.77,0,0,0,.9-.1"/><path class="cls-1" d="M258.35,400a42.79,42.79,0,0,0,19.3,5.7,1.15,1.15,0,0,0,1-.8v-.1l-1.7-17.9a.6.6,0,0,0-.7-.6c-.1,0-.3,0-.3.1l-17.7,11.4a1.32,1.32,0,0,0-.4,1.8,1.76,1.76,0,0,1,.5.4"/><path class="cls-1" d="M325.15,392.53c.6,3.4,4.2,14.9,9,14.2a1.67,1.67,0,0,0,1.5-2,.78.78,0,0,0-.3-.7c-1.5-2.2-7.4-14-9.8-12.6a2.1,2.1,0,0,0-.4,1.1"/><path class="cls-1" d="M321.55,400.93c-3.9-2.5-2.8-7.7-9.5-7.6-5,.1-9.5,8.4-10.5,12.8,0,.3.1.6.4.6h.1l22.3-.6a.42.42,0,0,0,.4-.4h0a6.68,6.68,0,0,0-3.2-4.8"/><path class="cls-1" d="M327.55,644.23c0-.8-2.7-1.5-5.9-1.4h0c-3.2.1-5.7,1-5.7,1.8s2.7,1.5,5.9,1.4h0c3.2-.1,5.7-.9,5.7-1.8"/><path class="cls-2" d="M200.05,112.83a368.49,368.49,0,0,0,47.6-42.7,76.83,76.83,0,0,0,5.5-6.6c5.7-7.7,3.1-17.8,6-26.2,2.2-6.4,4.9-10.2,10.9-14.2a97.3,97.3,0,0,0,22.6-20.9,5.07,5.07,0,0,1,4.8-2.2,3,3,0,0,1,1.3.6,11.58,11.58,0,0,1,3.4,7.3c1.3,16.7-4.1,29.7-16.3,39.1-7.6,5.9-18.4,8.5-25.2,18.1a221.52,221.52,0,0,1-35,38c-.4.3-.3.4.1.6,8.1,1.1,15.6,4.9,23.5,5.7a3,3,0,0,1,1.3.6c8,7,14.3,6.7,24,4.8,10.8-2.1,13.7-16,27-16.1h29.3c.3,0,.4.1.4.4v.3a138.47,138.47,0,0,1-14.2,21.3c-9.8,12.1-25.8,6.7-37.8,2.4-7-2.5-12.8-3.1-19.6-1.7-.4.1-.6.3-.1.6,5.9,4.5,14.9,11.8,13.2,19.1-1.8,7.8-3.2,15.7-4.3,23.4a.9.9,0,0,1-1,.7c-.1,0-.3-.1-.4-.1a40.74,40.74,0,0,1-13-14.7c-3.2-5.9-1.3-14.3.1-20.7,2.8-14.3-20.7-15.8-29-17.5-6.9-1.4-16,5.5-21.4,9.8a1.17,1.17,0,0,0-.3,1.7c2.5,3.9,14.9,21.3,13.7,24.8a2.08,2.08,0,0,1-2.7,1.3,1.1,1.1,0,0,1-.6-.3l-23.1-16.8a1.83,1.83,0,0,0-2.4,0c-6,4.3-5,9.2-2.4,15.8,5.5,13.6,11.4,27,17.5,40.5,1.8,3.8,1.5,7.4,1,11.4-.6,3.4-2.1,3.4-5,3.8-8.1,1.1-8.5-2.5-11.6-9.5-7.1-16.5-14.4-32.9-21.7-49.3a.52.52,0,0,0-.7-.3h0a202.24,202.24,0,0,1-59.7,24.5c-2.5.6-2.7,1.5-.6,2.9,34.5,22.4,54.8,54.9,71.1,92.5,18.8,43.6,34.9,94,69.5,127.5.3.3.6.1.8,0l.1-.1c7.6-12.8,13.9-28.2,22.8-39.5,8.5-10.8,17.1-21.6,25.4-32.7,7.4-9.7,16-17,25.1-24.7a12.21,12.21,0,0,0,3.5-4.8c10.1-21.6,30.6-33.2,54.2-23,2.8,1.3,5.6,9.5,9.8,9.8,3.5.3,10.4,1.1,11.5,2.8a2.28,2.28,0,0,1-.7,3.1.6.6,0,0,1-.4.1l-12.5,4.9a2,2,0,0,0-1,1c-1.8,5.5-.1,15.4.1,21.3,1.3,28.3-8.5,51.2-29.6,68.4-5,4.2-10.8,6.7-17,9.2a2.13,2.13,0,0,0-1.1,2.8c0,.1.1.1.1.3a44.58,44.58,0,0,1,5,13.6,1.27,1.27,0,0,0,1.1,1.1c17.7,2.5,35.2,4.8,52.8,6.6,19.9,2,39.5.4,59.4-1a104.79,104.79,0,0,1,16.8.4c.4,0,65,20.2,65.7,27a16,16,0,0,0-1.4,4.2c-.7,3.6-6.3,2.4-4.8,8l-1.7-.4a1,1,0,0,0-1,.4c-.6,1.1,2.7,5.3,3.5,6.2,3.2,3.5,9.9,4.9,14,7.6,8.3,5.2,9.4,19.3,9.4,28a1.49,1.49,0,0,1-1.3,1.4c-3.2.3-11.6-8.5-14-10.9a18.78,18.78,0,0,1-5.7-12.9c0-1.1-.7-2.4-1.8-4.1a2.1,2.1,0,0,0-1.1-.8c-4.1-1.7-5.7-3.8-7.3-8.3-4.3-12.6-21.9-18.9-32.5-22.1a2,2,0,0,0-1.3.1,23.67,23.67,0,0,0-4.6,2.8c-12.9,11.8-21.4,19.9-25.8,24.2a19.66,19.66,0,0,1-14.4,6.3,1.54,1.54,0,0,1-1.4-.6c-2.5-2.1-3.2-4.9-2-8.4a1.13,1.13,0,0,0-.6-1.3.75.75,0,0,0-.8.1c-6.7,4.3-14.6,10.9-22.8,9.7a1,1,0,0,1-.8-1.1,1.1,1.1,0,0,1,.3-.6,126.35,126.35,0,0,1,19.2-16.7,11.87,11.87,0,0,0,3.5-3.9c3.9-6.9,11.8-12.8,18.1-17.4a.56.56,0,0,0,.1-.7c-.1-.1-.1-.1-.3-.1a14.08,14.08,0,0,0-2,.1c-23.5,5.5-47.6,5-71.5,4.6a71.74,71.74,0,0,0-10.4.8c-.3,0-.4.3-.3.4s.1.1.1.3c17.7,10.9,30,24.4,43.3,39.9,9.2,10.8,20.7,20,34.9,23.7,11.5,2.9,22.3,4.2,34.6,7.8,18.4,5.5,32,16.7,40.6,33.6a3.18,3.18,0,0,0,1,1c3.4,1.5,6,.7,8-2.5a3.57,3.57,0,0,1,1.1-1c3.2-1.7,6-2.4,8.5-2.1a126.82,126.82,0,0,0,22.3,1,1.71,1.71,0,0,1,1.8,1.7,1.69,1.69,0,0,1-.3,1c-4.5,6.9-13.3,15-22.4,13-4.3-.8-8.3-4.6-14-5.7a1.17,1.17,0,0,0-1.4,1v.6c1,3.2,3.9,4.8,6.4,6.7,8.3,6.3,20.2-.6,27.5,9.1,4.6,6,9.2,12.1,14.2,18.1a1.66,1.66,0,0,1-.1,2.2,1.13,1.13,0,0,1-1.1.3c-10.9-1.3-27.2-3.6-34.6-13-5.2-6.4-9-13.5-16.1-18.2-.3-.1-.6-.1-.7.1a.3.3,0,0,0,0,.4c3.6,7.1,6.6,15,11.8,20.7,11.2,12.6,30.8,21.7,47.5,14.9,12.8-5.2,27-.6,38.3,4.8a2.33,2.33,0,0,1,1.1,2.9,1.39,1.39,0,0,1-.7.8,93.48,93.48,0,0,1-16.4,9.4c-10.9,4.9-22.1-.7-31.3-6-6.2-3.5-11.8-4.9-18.6-5.7a1.19,1.19,0,0,0-1.4,1.1,1.5,1.5,0,0,0,.4,1.1c4.6,4.3,10.9,10.2,8,17.7a64.82,64.82,0,0,1-10.4,17.5,2.2,2.2,0,0,1-3.1.3l-.3-.3c-11.9-15.3,2.2-21.3,2.8-35.2a2.42,2.42,0,0,0-.4-1.3c-13-13-26.5-19.5-32.4-38.5a1,1,0,0,0-1.1-.6c-.3,0-.4.3-.6.4-2.8,4.6-5.3,9.4-7.7,14.3-5,10.5,5,22.3-.8,31.5-3.2,5-5.6,10.5-8.1,15.8a1.5,1.5,0,0,1-2,.7.1.1,0,0,1-.1-.1c-2.8-1.8-6.6-15.4-7.4-18.9-1.5-6.3,5.3-13.9,8.3-19.9a161.35,161.35,0,0,1,15-24.9,13,13,0,0,0,1.5-8.8c-5.2-29.8-37.7-35.2-62.6-39.4a115.62,115.62,0,0,1-28.2-8.5,1.07,1.07,0,0,0-1.5.6c-.1.1-.1.4-.1.6a55.13,55.13,0,0,1-5.2,27.7c-3.1,6.7-7.8,17.5-.6,23.5A71.09,71.09,0,0,0,440,562c9.2,3.8,17,8.4,15.8,19.2-.3,3.6-3.9,19.1-8,20a1.56,1.56,0,0,1-1.7-.7,151.56,151.56,0,0,1-15-33.5c-2-6.3-11.9-11.9-17.4-14.6-.4-.1-.6-.1-.3.3a99,99,0,0,1,9.2,16.5c4.2,9.8-1.7,24-8,31.4a2,2,0,0,1-2.8.3c-.3-.1-.4-.4-.6-.7l-9.7-22.4a2.25,2.25,0,0,1-.1-1.4c1.7-10.2,10.2-17.2,10.4-27.9.1-11.4,2.5-22.3,4.1-33.6a1.25,1.25,0,0,0-1-1.4,1.69,1.69,0,0,0-1,.3,87.33,87.33,0,0,0-9,10.8c-3.2,4.8-1.7,10.2-5.3,15.1-4.6,6.3-12.5,11.6-18.4,17.1-.3.3-.6.3-.8,0a.6.6,0,0,1-.1-.4c.3-7.1.4-14.2.1-21.2-.4-11.4,12.5-13.7,20.2-17,6.3-2.5,9.8-6.7,13.3-12.1a2,2,0,0,0,.4-1.3c.3-18.1-25.1-37.8-38.4-47.4-12.9-9.1-28.3-14.2-46.4-15.3-17.7-1.1-32.2-1.4-43.7-1-4.6.1-11.1,29-17.1,33.5-2.4,1.8-14,4.2-15-.6-1.1-5.7-1.8-10.9,1-16.5a141,141,0,0,0,7-17.2.6.6,0,0,0-.4-.8h-.1a125.9,125.9,0,0,1-62.5-33.6,2.13,2.13,0,0,0-2.8,0l-.1.1a281,281,0,0,0-30.4,50.5c-9.8,21.2,4.5,42.6,21.2,55.1a4.72,4.72,0,0,0-1.8,4.6c0,.4-.1.7-.6.7l-5.5,1.3a.86.86,0,0,0-.6.7v.7c-2.7-2.4-1.7,2.5-1.4,3.2a8.8,8.8,0,0,0-5,1.4c-6.3,3.5-12.9-6-14.4-10.7-.7-2.2-2.7-3.5-5.7-3.6-5.2-11.2-6.3-21-7.4-34.1-3.6-43.2,31-71.2,37.8-110.6a3.33,3.33,0,0,0-.1-1.4c-6.9-17.7-13.3-35.6-19.2-53.5a279.75,279.75,0,0,0-28.4-60.7,1,1,0,0,0-1.1-.3,1.54,1.54,0,0,0-.4.6c-.6,4.1.6,8.1.1,12.1-.7,6.4-1.5,12.8-2.7,19.1a3.09,3.09,0,0,0-2.9-1.1,1.11,1.11,0,0,0-1.1.8l-2,4.1a2.1,2.1,0,0,1-1.1.8h-1a1.67,1.67,0,0,0-1.3.3,5,5,0,0,0-2.5,5.3,1.42,1.42,0,0,1-.4,1.4l-2.7,3.4a1.28,1.28,0,0,0-.4,1l-.4,3.6c0,.6-.6,1-1.1,1.1l-6.7.6a1.74,1.74,0,0,0-1.1.6l-4.2,3.9c-.8-1.4-2.1-1.3-3.6.4a6,6,0,0,1,2.5-3.8c.3-.3.6-.7.4-1.1-.4-3.5,4.5-7.3,8.4-10.8a2.29,2.29,0,0,0,.7-1l.4-1.1a2.29,2.29,0,0,1,.7-1c3.8-3.2-.4-7.1,2-11.8.6-1,.3-3.1-.4-6.2a42,42,0,0,0,1.5-17.2c-1.3-10.2-9.4-24.4-15.1-33.2-6-9.4-19.1-11.2-31.3-14.3-2.5-.6-4.5-.3-6,.8a110.08,110.08,0,0,1-58.7,21.3,1.9,1.9,0,0,1-2-1.8v-82.4a.94.94,0,0,1,1-1h0c16.3.6,31.8,2.2,48.1,6.2,9,2.2,17.2,5,26.5,5a187.31,187.31,0,0,0,49.7-6.6m246.5,133.1c.4-.7-.3-1.8-1.5-2.4h0c-1.3-.6-2.5-.6-2.8.1h0c-.4.7.3,1.8,1.5,2.4h0c1.1.6,2.4.6,2.8-.1Zm-76,83.3,3.4,1.7c.6.3.7.1.7-.4-.7-4.5,3.1-2.7,4.5-5,.3-.6.1-.8-.4-.8a14,14,0,0,0-8.1,3.1.9.9,0,0,0-.1,1.4C296.35,363.53,296.45,363.73,296.55,363.73Zm-2.2,12.2c2.2,1.3,8.4-2.8,10.2-4.1,4.2-3.1,8.5-4.8,12.6-7.8a.78.78,0,0,0,.1-1.1.1.1,0,0,0-.1-.1l-.6-.4a1,1,0,0,0-1.3,0c-7.8,4.3-12.1,9.7-21.7,12.9-.6.1-.6.4-.1.7A2.77,2.77,0,0,0,294.35,375.93Zm-36,24.1a42.79,42.79,0,0,0,19.3,5.7,1.15,1.15,0,0,0,1-.8v-.1l-1.7-17.9a.6.6,0,0,0-.7-.6c-.1,0-.3,0-.3.1l-17.7,11.4a1.32,1.32,0,0,0-.4,1.8A1.76,1.76,0,0,1,258.35,400Zm66.8-7.5c.6,3.4,4.2,14.9,9,14.2a1.67,1.67,0,0,0,1.5-2,.78.78,0,0,0-.3-.7c-1.5-2.2-7.4-14-9.8-12.6A2.1,2.1,0,0,0,325.15,392.53Zm-3.6,8.4c-3.9-2.5-2.8-7.7-9.5-7.6-5,.1-9.5,8.4-10.5,12.8,0,.3.1.6.4.6h.1l22.3-.6a.42.42,0,0,0,.4-.4h0A6.68,6.68,0,0,0,321.55,400.93Z"/><path class="cls-2" d="M272.25,71.83a7.08,7.08,0,0,1,4.9-2.7c.4,0,.8.1.8.6,2.5,9.8,4.9,25.6-3.8,32.7-7.1,5.7-13.2,5-21,7a1.66,1.66,0,0,1-2.1-1.3v-.7c.6-4.2-.3-9.2,1.1-13C255.65,85.23,265.65,80.23,272.25,71.83Z"/><path class="cls-2" d="M112.35,270.33c.8,3.1,1,5,.4,6.2-2.4,4.8,1.8,8.7-2,11.8a2.29,2.29,0,0,0-.7,1l-.4,1.1a1.69,1.69,0,0,1-.7,1c-3.9,3.5-8.8,7.3-8.4,10.8a1.5,1.5,0,0,1-.4,1.1,5.76,5.76,0,0,0-2.5,3.8c-19.2,12.2-40.5,22.8-57.6,38.4-17.5,16.1-29,40.8-35.9,63.3-.1.7-.8,1.1-1.5,1.3-3.1.3-2.2-13.5-1.8-14.7,9.2-24.8,24.7-51.4,48.1-65.3,1.5-1,1.5-1.7-.3-2.4a26.57,26.57,0,0,0-19.8.1,1.21,1.21,0,0,0-.8,1.1c-3.2,14.4-10.1,20.9-22.3,30.4-.8.6-2.5,2.2-3.6,1.8a2.29,2.29,0,0,1-1.4-2.4c1-6.7,1.8-21.3,7.1-25.6A81.86,81.86,0,0,1,17,326c3.4-2.1,7.6.8,9.5-2.8a.63.63,0,0,0-.3-.8h0c-5.5-2.2-8.8-1-13.9,2.4-3.2,2.1-13,7.8-12.2.1a89.9,89.9,0,0,0,.7-12.8c-.3-13,26.2,2.8,29.6,4.9a.9.9,0,0,0,1.1-.1,1.55,1.55,0,0,0-.1-2.5c-6.4-6.3-7.4-12.2-5.3-21.2.8-3.8,4.6-18.9,10.5-15.1a1.78,1.78,0,0,1,.8,1.1c3.9,11.1,12.8,24.9,2.2,35.5a2.42,2.42,0,0,0,0,3.5,2.33,2.33,0,0,0,1.3.7c14.7,2.9,25.4-1.1,37.4-10.5C92.25,297.13,105.75,287.93,112.35,270.33Z"/><path class="cls-2" d="M130.15,281.33c-2.7,14-9.5,24.9-17.7,36.3-3.2,4.6-2.8,9.2,1.1,14.2,12.5,15,26.6,38.4,12.6,57-.1.1-3.2,3.4-9.5,9.5-7.1,7.1-18.4,22.1-16.3,33.1a2.21,2.21,0,0,0,2.7,1.8,3.35,3.35,0,0,0,1.3-.7c5.3-5.5,10.4-4.5,17.2-1.7,4.2,1.7,17.9,6,19.6,10.1a2.31,2.31,0,0,1-1.3,3.1c-.1,0-.1,0-.3.1-4.8,1.4-9.2,2.8-13.5,4.5-13.5,5.2-17-11.1-26.5-12.6-.3,0-.7.1-.7.6h0a34.86,34.86,0,0,0,1.8,13.3c3.2,9,13.7,11.2,16.3,20.3,1.8,6.9,6.3,20.5,4.6,24.9a.7.7,0,0,1-1,.4,18,18,0,0,1-4.9-2.9c-8.8-6.9-20.6-17.1-22.1-27-.6-3.6.4-7.7.7-11.8.4-6.9-5.6-11.2-3.5-19.2,1.7-6.4,3.2-13,4.5-19.5A1.9,1.9,0,0,1,96,414a20.62,20.62,0,0,0,4.2-6,186.57,186.57,0,0,1,9.4-16.3c.1-.1,0-.4-.1-.6-.1,0-.3-.1-.4,0-9.4,3.5-19.5,2.7-26.2,10.7-2.5,2.9.3,11.1,1.1,14.6,2.7,10.4-1.3,14.2-8.1,21.2a1.34,1.34,0,0,1-2,0,2.15,2.15,0,0,1-.4-.7,82,82,0,0,0-3.9-12.5c-3.1-7.7,2.1-15.7,4.8-22a.52.52,0,0,0-.3-.7c-.1-.1-.4,0-.6.1-2.2,2.8-4.3,4.3-5.9,7.7a39.21,39.21,0,0,1-11.9,15.1,120.15,120.15,0,0,0-9.8,9,2.3,2.3,0,0,1-3.1,0,1.74,1.74,0,0,1-.6-1.1c-1.5-7.4-.7-19.8,6-24.5,3.4-2.5,10.7-3.6,15.3-5.3,7.4-2.5,13.3-4.5,17.4-10.2.4-.6.3-1.3-.3-1.5a.9.9,0,0,0-1.1-.1c-13.6,6.3-21.7-1.8-26.3-14.2-1.1-3.1-.6-4.2,2.7-4.3,6-.3,11.9.1,17.1,3.9,5,3.8,10.2,7.6,15.4,11.4a3.54,3.54,0,0,0,2.7.6c16-3.2,34.2-14.3,24.4-33.8a68.35,68.35,0,0,0-9.5-14.3c-4.2-5-12.5-15.4-9.8-22,1.5-3.8,3.1-7.6,4.8-11.5l4.2-3.9a1.74,1.74,0,0,1,1.1-.6l6.7-.6a1.18,1.18,0,0,0,1.1-1.1l.4-3.6a1.28,1.28,0,0,1,.4-1l2.7-3.4a2.12,2.12,0,0,0,.4-1.4,4.59,4.59,0,0,1,2.5-5.3,1.94,1.94,0,0,1,1.3-.3,1.7,1.7,0,0,0,1,0,2.1,2.1,0,0,0,1.1-.8l2-4.1a2.1,2.1,0,0,1,1.1-.8C128.55,280,129.55,280.33,130.15,281.33Z"/><path class="cls-2" d="M538,438.93a216.7,216.7,0,0,0,59.3,25.2c18.8,4.9,41.2,7.1,62.1,9.9a2.28,2.28,0,0,0,2.4-1.8v-.4l-.4-6.2a2,2,0,0,1,.4-1.3c4.6-5.9,11.5-9.7,16-13.5,2.5-2.1,5-4.2,7.7-6.2a1.5,1.5,0,0,1,2.2.3c.1.1.1.3.3.4,4.3,10.1-5.2,22.1-13.2,26.9-.4.3-.4.4.1.4,5.9.8,14.3,2,19.8-1,10.2-5.6,16.7-9.8,28.9-8.1a154.56,154.56,0,0,0,20.5,1.5.94.94,0,0,1,1,1c1,7.1-10.8,16.7-16.5,18.1-10.1,2.5-19.8,1-29.3-4.5-4.8-2.8-10.8-2-16.1-1.8-5.5,0-15.4-.7-23.1.7a1,1,0,0,0-.8,1.1c0,.3.1.4.4.7a108.13,108.13,0,0,0,17.7,10.2c9.2,4.3,17.7,14.2,15.7,24.9-.4,2.7-3.2,17.1-5.2,18.1a1,1,0,0,1-1.1-.3c-3.9-5.7-7.4-11.5-10.8-17.5-3.5-6.2-3.8-14.2-6.6-20.2-4.6-9.8-12.9-15.6-24.5-17.1-13.9-1.8-27.7-3.9-41.6-6-6.2-1-12.9-3.6-19.5-4.6a.89.89,0,0,0-1.1.8,1.28,1.28,0,0,0,.4,1c12.5,10.2,21.9,17.5,38.7,18.1,6.2.1,9.9.6,11.4,1,10.1,3.1,14.9,16.5,19.2,25.1a1.13,1.13,0,0,1-.3,1.1c-.7.4-17.9-3.9-20.5-4.3-4.8-.8-10.4-4.8-14.6-8.7-6.9-6.3-13.2-12.6-21.6-16.5a1.07,1.07,0,0,0-1.5.6,2,2,0,0,0,0,1.1c4.3,7.4,9.1,13.2,4.2,22a111.76,111.76,0,0,1-10.5,15.6,1.59,1.59,0,0,1-2.2.3l-.4-.4c-6.7-11.2-6.3-21.2,1.1-29.8,3.2-3.9,3.4-8.1,2.7-12.8a1.74,1.74,0,0,0-.6-1.1c-14-13.5-36.4-22.4-55.9-29.7-1.5-5.5,4.1-4.3,4.8-8A7,7,0,0,1,538,438.93Z"/><path class="cls-2" d="M511.85,501.43c-4.8-3.4-2.8-13.7-1.3-18.4.7-2.1,2.4-4.5,4.9-7.1a89.76,89.76,0,0,0,9.2-11.9.43.43,0,0,1,.7-.1.1.1,0,0,1,.1.1c4.8,5,8.3,13.7,3.2,20a178.31,178.31,0,0,1-16.1,17.4C512.45,501.63,512.15,501.73,511.85,501.43Z"/><path class="cls-2" d="M178.15,519.83v-.7c0-.3.3-.7.6-.7l5.5-1.3a.86.86,0,0,0,.6-.7,4.65,4.65,0,0,1,1.8-4.6c7.3,5.9,17.2,15.7,26.2,18.2a53.35,53.35,0,0,0,23.5,1.4c1.1-.4,2.9-3.5.7-3.5-10.5-9.8-3.6-23,1.7-36.7a1.37,1.37,0,0,1,1-.8,4.64,4.64,0,0,1,5.9,2.2c6.3,10.9,10.4,26.8-1,35.9a.77.77,0,0,0-.1,1h0a3.46,3.46,0,0,0,3.1-.3c11.8-8.5,20.3-11.5,34.8-6.4,7.3,2.5,14.6,5.5,21.6,8.7,11.1,5.2-2.7,10.8-7,12.3-17.9,6.7-32.7-11.4-48.3-8.8-.4.1-.6.3,0,.4,4.1,2.2,8.4,1.8,11.9,3.9,13.5,8,13.7,18.6,15.1,32.5A2,2,0,0,1,274,574a1.72,1.72,0,0,1-1.5-.6c-6-5.3-13.7-10.8-18.2-17.1-2.9-4.2-3.2-10.1-6-14.3-3.9-5.6-15.7-2.2-21.3-1-.4.1-.6.3-.1.6a124,124,0,0,1,44.6,55.6q10.35,25.2,17.1,37.8a27.53,27.53,0,0,0,10.4,10.2,1.08,1.08,0,0,0,1.1,0c9.2-6.6,10.1-13.7,23.8-13.3a170.19,170.19,0,0,0,22.6-1c.3,0,.4.1.6.4v.1c-1.7,5.7-7.4,19.2-14,20.3a44.9,44.9,0,0,1-23.5-2.2,4.74,4.74,0,0,0-3.1.1.42.42,0,0,0-.3.6.1.1,0,0,0,.1.1c1.5,1.8,2.8,3.4,5,4.2,10.2,3.6,17,9,28.9,5.6,24.4-7,28.2,9.2,39.7,24.9a1.17,1.17,0,0,1-.3,1.7.9.9,0,0,1-1.1.1q-15.15-4.8-29.4-8.4c-4.5-1.1-10.7-4.5-15.3-8s-8.1-5.7-10.4-6.3a81.83,81.83,0,0,1-24-11.4,55,55,0,0,0-13.3-6.3,1.09,1.09,0,0,1-.8-.8,53,53,0,0,0-3.4-8.1c-13.3-27.6-23.3-60.8-47.4-81.8a209.8,209.8,0,0,0-35.3-24.1C192.05,528.53,185.15,523.63,178.15,519.83Zm149.4,124.4c0-.8-2.7-1.5-5.9-1.4h0c-3.2.1-5.7,1-5.7,1.8s2.7,1.5,5.9,1.4h0C325.05,645.93,327.55,645.13,327.55,644.23Z"/><path class="cls-2" d="M151.55,510c3.1.1,5,1.4,5.7,3.6,1.4,4.6,8.1,14.2,14.4,10.7a10.72,10.72,0,0,1,5-1.4c8.5,12.8,1,21-6.9,31-6,7.6-14.9,20.3-11.4,29.7,4.1,10.5,17.1,16.7,27.7,17.5a3.45,3.45,0,0,0,1.3-.3c11.2-7,19.6-18.4,34.6-14.3a1.89,1.89,0,0,1,1,.8c1.5,4.5-5,12.6-8,15.7-9.4,9.1-17.9-1.4-22.3,1.3-.6.3-.4.6,0,.8a11.42,11.42,0,0,1,5.5,4.9,3.57,3.57,0,0,0,1.1,1c7.6,2.9,15,5.9,22.7,8.4,12.5,3.9,14,14.9,12.2,26.1-.3,2.2-1.4,2.7-3.2,1.3-5.3-4.1-10.2-8.3-15-12.6-5-4.6-7.8-10.5-11.6-16.3a2,2,0,0,0-2.7-1.1.57.57,0,0,0-.4.8v.1c1.5,3.1,6.3,9.1,5.7,12.3-1,6.2-1.8,12.5-2.7,18.8a1.51,1.51,0,0,1-.7,1.1c-4.9,3.9-10.4-7.8-12.6-11.2-4.6-7,7.1-13.2,2.8-20.5a33.87,33.87,0,0,0-7.7-9.1,3.88,3.88,0,0,0-1.1-.6l-17.5-2.7c-2-.3-2.4.3-1,1.8,11.6,13.5,22.4,33.2,17.1,51.9a35.1,35.1,0,0,0-1.3,11.6,45.31,45.31,0,0,1-.1,8.8c-2.5,10.8-16.1,22-24.2,28.6a2.12,2.12,0,0,1-3.1-.3,2,2,0,0,1-.4-1.8c1.3-6.6,2.4-13,3.5-19.6,1.7-9.5,10.7-12.9,15.4-20.5a29.69,29.69,0,0,0,4.5-16.8,1.42,1.42,0,0,0-1.4-1.3.78.78,0,0,0-.7.3c-8.8,6.2-13.9,18.1-26.8,13-4.6-1.8-9.2-3.4-14-4.8a2,2,0,0,1-1.4-2.4,2.21,2.21,0,0,1,1-1.3c8-3.9,16-7.6,24.2-10.7,6.3-2.4,7.8.6,12.6,3.5a1.21,1.21,0,0,0,1.3.1c3.8-1.1,5-3.5,3.8-7.1-3.6-10.4-8.5-18.8-14.7-25.1-6-6.2-12.1-11.4-15.1-18.6-8.3-20.2,9.5-39,18.6-55.4a7.26,7.26,0,0,0,.8-2.8,3,3,0,0,0-.1-1.3C162.35,526.53,155.75,519.23,151.55,510Z"/><path class="cls-3" d="M237.05,527.93c2.1,0,.3,2.9-.7,3.5Z"/></g></g></svg>