<svg xmlns="http://www.w3.org/2000/svg" viewBox="0 0 604.32 549.27"><defs><style>.cls-1{fill:none;}.cls-2{fill:#fff;}.cls-3{fill:#171718;}</style></defs><title>lostordosblanco</title><g id="Capa_2" data-name="Capa 2"><g id="Capa_1-2" data-name="Capa 1"><path class="cls-1" d="M80,236.3c-4.68,12.54-14.28,19.07-24.19,26.81-8.6,6.72-16.2,9.64-26.68,7.53a1.76,1.76,0,0,1-1.37-2.08,1.69,1.69,0,0,1,.47-.88c7.51-7.55,1.2-17.42-1.63-25.32a1.5,1.5,0,0,0-.6-.76c-4.16-2.73-6.83,8.06-7.47,10.8-1.49,6.42-.78,10.61,3.83,15.1.66.65.68,1.25.06,1.81a.66.66,0,0,1-.8.06C19.27,267.82.38,256.51.53,265.85A65.69,65.69,0,0,1,.05,275c-.69,5.47,6.4,1.34,8.65-.13,3.66-2.39,6-3.25,9.91-1.67a.46.46,0,0,1,.26.61l0,0c-1.42,2.66-4.41.54-6.78,2.05A64.38,64.38,0,0,0,5.55,281c-3.71,3.17-4.4,13.51-5.06,18.35a1.6,1.6,0,0,0,1,1.71c.75.31,2-.85,2.55-1.28C12.77,293,17.7,288.37,20,278.08a1,1,0,0,1,.64-.76,18.77,18.77,0,0,1,14.13-.06q1.83.71.15,1.71c-16.69,10-27.73,28.92-34.32,46.64-.32.88-.95,10.61,1.29,10.46a1.23,1.23,0,0,0,1.09-.87C7.85,319.08,16,301.51,28.51,290c12.11-11.16,27.35-18.76,41.05-27.42"/><path class="cls-1" d="M69.56,262.59c1.08-1.25,1.94-1.36,2.59-.35"/><path class="cls-1" d="M72.15,262.24c-1.22,2.83-2.37,5.57-3.43,8.22-1.87,4.66,4,12.1,7,15.68a50.25,50.25,0,0,1,6.76,10.22c6.91,13.95-6.07,21.82-17.44,24.14a2.41,2.41,0,0,1-1.88-.41l-11-8.08c-3.7-2.73-7.85-3-12.2-2.79-2.39.11-2.76.89-1.94,3.09,3.25,8.78,9,14.64,18.77,10.11a.79.79,0,0,1,1.06.38.81.81,0,0,1-.07.81c-2.92,4.12-7.12,5.5-12.43,7.34-3.38,1.17-8.48,2-10.93,3.77-4.85,3.46-5.41,12.26-4.31,17.52a1.58,1.58,0,0,0,2.67.78,85.58,85.58,0,0,1,7-6.44,29.4,29.4,0,0,0,8.46-10.85c1.13-2.34,2.63-3.52,4.2-5.49a.35.35,0,0,1,.5,0,.36.36,0,0,1,.11.4c-1.89,4.56-5.59,10.22-3.42,15.71a63.5,63.5,0,0,1,2.76,8.88,1,1,0,0,0,1.62.46c4.85-5,7.7-7.71,5.8-15.09-.65-2.53-2.59-8.27-.81-10.41,4.8-5.74,12-5.15,18.68-7.63a.3.3,0,0,1,.37.18.28.28,0,0,1,0,.25q-3.54,5.57-6.67,11.57a15.89,15.89,0,0,1-3,4.31,1.44,1.44,0,0,0-.46.82q-1.41,7-3.21,13.93c-1.49,5.7,2.84,8.76,2.5,13.67-.2,2.89-.9,5.78-.51,8.37,1.07,7.06,9.48,14.39,15.75,19.27A12.23,12.23,0,0,0,86,397a.59.59,0,0,0,.71-.34c1.29-3.14-1.91-12.84-3.25-17.78-1.78-6.53-9.33-8.11-11.58-14.51a24.15,24.15,0,0,1-1.31-9.49.45.45,0,0,1,.47-.43h0c6.78,1.1,9.34,12.77,18.92,9q4.44-1.73,9.55-3.18a1.7,1.7,0,0,0,1.16-2.08l-.06-.18c-1.19-2.86-11-6-14-7.18-4.94-2-8.53-2.73-12.31,1.18a1.65,1.65,0,0,1-2.8-.84c-1.47-7.78,6.46-18.5,11.58-23.61q6.67-6.69,6.78-6.82c10-13.28-.08-29.95-9-40.65q-4.32-5.21-.83-10.1c5.79-8.15,10.65-15.92,12.58-25.92"/><path class="cls-1" d="M92.73,244.09q1.15-6.76,1.89-13.6c.29-2.78-.55-5.69-.14-8.62a.57.57,0,0,1,.66-.49.61.61,0,0,1,.4.26,196.08,196.08,0,0,1,20.33,43.29q6.3,19.27,13.72,38.22a1.88,1.88,0,0,1,.09,1c-4.9,28.13-29.57,48.15-26.95,78.9.79,9.29,1.64,16.32,5.33,24.32"/><path class="cls-1" d="M108.06,407.34c3,6.61,7.68,11.73,10.51,18.34a1.52,1.52,0,0,1,.08.94,9.87,9.87,0,0,1-.64,2c-6.48,11.65-19.17,25-13.31,39.47,2.12,5.22,6.44,8.93,10.77,13.34s8,10.5,10.52,17.91q1.33,3.85-2.67,5.12a1.08,1.08,0,0,1-.91-.13c-3.36-2.18-4.48-4.25-9-2.54a188,188,0,0,0-17.25,7.58,1.39,1.39,0,0,0,.24,2.57q5,1.43,10,3.39c9.16,3.6,12.72-4.84,19.06-9.28a1,1,0,0,1,1.32.24,1,1,0,0,1,.17.51,20.84,20.84,0,0,1-3.18,12c-3.46,5.49-9.78,7.8-11,14.64q-1.26,6.94-2.53,14a1.58,1.58,0,0,0,2.56,1.5c5.83-4.8,15.57-12.8,17.35-20.45a28.78,28.78,0,0,0,.1-6.25,25.25,25.25,0,0,1,.94-8.33c3.78-13.32-3.91-27.38-12.21-37q-1.41-1.62.72-1.29l12.47,1.9a1.64,1.64,0,0,1,.77.35,25.12,25.12,0,0,1,5.54,6.52c3.06,5.21-5.34,9.65-2,14.62,1.6,2.38,5.46,10.76,9,8a1.24,1.24,0,0,0,.46-.81q.9-6.69,1.91-13.36c.35-2.3-3-6.62-4.13-8.82a.47.47,0,0,1,.21-.62l.06,0c.94-.3,1.36,0,1.88.79,2.67,4.14,4.67,8.29,8.29,11.61q5,4.58,10.67,9,1.89,1.45,2.27-.9c1.26-8,.18-15.76-8.72-18.57-5.46-1.73-10.82-3.87-16.19-6a1.45,1.45,0,0,1-.76-.66,8.16,8.16,0,0,0-3.93-3.53c-.38-.17-.4-.36,0-.58,3.07-1.84,9.18,5.66,15.86-.88,2.18-2.14,6.84-7.94,5.73-11.16a1,1,0,0,0-.65-.61c-10.7-2.87-16.71,5.23-24.69,10.23a1.58,1.58,0,0,1-.92.23c-7.58-.6-16.89-5-19.77-12.5-2.54-6.62,3.79-15.75,8.07-21.16,5.65-7.13,11-13,4.93-22.12"/><path class="cls-1" d="M126,416.55c-.19-.47-.9-4,1-2.25"/><path class="cls-1" d="M127,414.3c5,2.67,9.86,6.25,14.51,8.85a150,150,0,0,1,25.19,17.24c17.23,15,24.33,38.73,33.83,58.4a48,48,0,0,1,2.4,5.75,1,1,0,0,0,.63.64,43,43,0,0,1,9.54,4.53,60.41,60.41,0,0,0,17.12,8.13c1.62.46,4.08,2,7.4,4.55s7.64,5,10.87,5.74q10.25,2.45,21,6a.85.85,0,0,0,1.07-.55.88.88,0,0,0-.12-.77C262.31,521.63,259.65,510,242.21,515c-8.52,2.45-13.34-1.4-20.59-4-1.64-.59-2.53-1.79-3.63-3a.34.34,0,0,1,0-.48.23.23,0,0,1,.12-.06,3.51,3.51,0,0,1,2.16-.13,32.26,32.26,0,0,0,16.82,1.6c4.76-.8,8.85-10.45,10-14.54a.34.34,0,0,0-.23-.42.29.29,0,0,0-.13,0,125.84,125.84,0,0,1-16.12.67c-9.78-.2-10.37,4.85-17,9.55a.78.78,0,0,1-.84,0,19.87,19.87,0,0,1-7.38-7.32q-4.8-9-12.21-27a88.49,88.49,0,0,0-31.81-39.7c-.28-.19-.25-.33.08-.41,4-1,12.42-3.31,15.18.65,2.07,3,2.23,7.18,4.32,10.16,3.17,4.53,8.72,8.37,13,12.2a1.5,1.5,0,0,0,2.11-.12,1.52,1.52,0,0,0,.38-1.15c-1-9.91-1.27-17.48-10.84-23.16-2.51-1.5-5.61-1.19-8.48-2.75-.31-.17-.29-.28.05-.33,11.26-1.84,21.73,11.1,34.53,6.26,3-1.14,12.87-5.16,5-8.81q-7.54-3.49-15.38-6.24C191,412.84,184.91,415,176.5,421a2.41,2.41,0,0,1-2.17.15.49.49,0,0,1,0-.7l.05,0c8-6.5,5.17-17.75.68-25.57a3.23,3.23,0,0,0-4.16-1.56,1,1,0,0,0-.66.62c-3.71,9.79-8.7,19.17-1.16,26.17"/><path class="cls-1" d="M169.06,420.09l-.54,2.46"/><path class="cls-1" d="M168.52,422.55a38.08,38.08,0,0,1-16.81-1c-6.42-1.84-13.48-8.8-18.69-13"/><path class="cls-1" d="M133,408.55c-11.93-8.89-22.13-24.19-15.09-39.27a199.45,199.45,0,0,1,21.67-36,1.42,1.42,0,0,1,2-.28l.14.12a89.53,89.53,0,0,0,44.57,24,.44.44,0,0,1,.34.52s0,0,0,.05a94.56,94.56,0,0,1-5,12.34c-1.92,3.91-1.42,7.71-.66,11.76.64,3.41,9,1.69,10.66.43,4.32-3.19,8.88-23.76,12.2-23.89q12.31-.5,31.19.69,19.32,1.21,33.08,10.94c9.55,6.75,27.6,20.85,27.41,33.78a1.82,1.82,0,0,1-.29.93c-2.51,3.85-5,6.76-9.51,8.6-5.46,2.24-14.7,3.93-14.4,12.08q.27,7.56-.09,15.14a.43.43,0,0,0,.73.34c4.15-3.89,9.75-7.71,13.06-12.19,2.57-3.49,1.42-7.43,3.76-10.83a54.09,54.09,0,0,1,6.39-7.71.83.83,0,0,1,1.2,0,.87.87,0,0,1,.25.72c-1.05,8.12-2.74,15.94-2.87,24.05-.11,7.58-6.26,12.62-7.45,19.91a1.75,1.75,0,0,0,.13,1l6.94,16a1.43,1.43,0,0,0,1.89.74,1.52,1.52,0,0,0,.52-.38c4.47-5.24,8.68-15.43,5.7-22.39A68.11,68.11,0,0,0,294.9,438c-.19-.28-.13-.35.17-.2,4,1.92,11.05,6,12.42,10.44a106.36,106.36,0,0,0,10.71,23.9,1.13,1.13,0,0,0,1.24.51c2.94-.7,5.49-11.7,5.73-14.25.75-7.72-4.71-11-11.34-13.74a49.77,49.77,0,0,1-13.19-7.92c-5.19-4.32-1.86-12,.38-16.84a39.88,39.88,0,0,0,3.69-19.78.81.81,0,0,1,.75-.88.79.79,0,0,1,.4.07A81.76,81.76,0,0,0,326,405.45c17.84,3,41.06,6.8,44.73,28.11a9.88,9.88,0,0,1-1.13,6.29,123.55,123.55,0,0,0-10.7,17.84c-2.09,4.24-7,9.63-5.9,14.16.6,2.47,3.29,12.23,5.26,13.49a1.05,1.05,0,0,0,1.45-.32l.07-.12a103,103,0,0,1,5.84-11.35c4.14-6.67-3.05-15.08.55-22.54q2.49-5.17,5.49-10.16a.65.65,0,0,1,.9-.23.67.67,0,0,1,.3.38c4.19,13.63,13.78,18.2,23.1,27.49a1.16,1.16,0,0,1,.34.86c-.44,9.91-10.46,14.26-2,25.15a1.55,1.55,0,0,0,2.18.27,1.75,1.75,0,0,0,.24-.23,46.52,46.52,0,0,0,7.45-12.48c2.09-5.22-2.41-9.41-5.67-12.55a.91.91,0,0,1,.74-1.56A32.29,32.29,0,0,1,412.49,472c6.52,3.81,14.53,7.78,22.32,4.29a69.25,69.25,0,0,0,11.67-6.69,1.6,1.6,0,0,0,.37-2.23,1.56,1.56,0,0,0-.62-.52c-8-3.78-18.23-7.16-27.29-3.42C407,468.39,393,461.82,385,452.85c-3.66-4.08-5.76-9.71-8.36-14.82a.35.35,0,0,1,.15-.47.32.32,0,0,1,.34,0c5.12,3.34,7.83,8.33,11.48,13,5.31,6.74,16.92,8.36,24.72,9.29a1.12,1.12,0,0,0,1-1.81q-5.22-6.42-10.11-12.88c-5.21-6.88-13.74-2-19.64-6.5-1.79-1.36-3.87-2.52-4.59-4.79a.84.84,0,0,1,1-1.09c4.11.76,6.92,3.43,10,4.05,6.53,1.33,12.82-4.38,16-9.33a1.25,1.25,0,0,0-.36-1.72,1.23,1.23,0,0,0-.72-.2,99.86,99.86,0,0,1-15.89-.7,10.37,10.37,0,0,0-6.06,1.49,2,2,0,0,0-.75.72q-2,3.44-5.66,1.78a1.46,1.46,0,0,1-.73-.7,46.08,46.08,0,0,0-29-24c-8.84-2.62-16.52-3.45-24.74-5.59-10-2.61-18.26-9.25-24.85-16.92-9.54-11.11-18.31-20.68-30.91-28.52a.29.29,0,0,1-.09-.39.3.3,0,0,1,.19-.12,34.79,34.79,0,0,1,7.37-.63c17.09.3,34.26.61,51-3.28a4.48,4.48,0,0,1,1.41-.12.32.32,0,0,1,.28.37.32.32,0,0,1-.12.22c-4.58,3.37-10.18,7.54-12.94,12.43a8.61,8.61,0,0,1-2.53,2.8,90,90,0,0,0-13.69,11.88.7.7,0,0,0,0,1,.71.71,0,0,0,.38.18c5.92.88,11.56-3.77,16.34-6.91a.66.66,0,0,1,1,.79q-1.4,3.64,1.35,6a1.58,1.58,0,0,0,1,.37,14.16,14.16,0,0,0,10.31-4.48q4.68-4.73,18.42-17.33a13.34,13.34,0,0,1,3.27-2,1.27,1.27,0,0,1,.94-.07c7.55,2.35,20.08,6.79,23.17,15.83,1.11,3.24,2.3,4.71,5.23,5.94a1.86,1.86,0,0,1,.75.59,6.16,6.16,0,0,1,1.34,2.91,13.65,13.65,0,0,0,4.06,9.17c1.71,1.72,7.71,8,10,7.83a1,1,0,0,0,.89-1c0-6.19-.86-16.24-6.74-20-2.95-1.88-7.69-2.87-10-5.37-.59-.64-3-3.57-2.54-4.41a.63.63,0,0,1,.72-.34l1.17.26"/><path class="cls-1" d="M379.27,365.3c14,5.19,29.93,11.59,39.94,21.16a1.47,1.47,0,0,1,.44.84c.47,3.32.45,6.32-1.9,9.07q-8,9.31-.76,21.29a1.17,1.17,0,0,0,1.59.41,1.31,1.31,0,0,0,.31-.27,82.4,82.4,0,0,0,7.48-11.06c3.54-6.25.1-10.39-3-15.67a.84.84,0,0,1,.29-1.14.86.86,0,0,1,.78,0c6,2.83,10.51,7.32,15.39,11.81,3,2.75,7,5.58,10.42,6.18,1.74.3,14,3.38,14.56,3.05a.61.61,0,0,0,.21-.77c-3.09-6.2-6.5-15.74-13.73-17.95a46.57,46.57,0,0,0-8.12-.67c-12-.38-18.69-5.55-27.57-12.88a.75.75,0,0,1-.1-1.06.73.73,0,0,1,.68-.26c4.69.64,9.48,2.56,13.93,3.26q14.82,2.36,29.7,4.32,12.45,1.65,17.46,12.18c2,4.27,2.22,9.95,4.71,14.39q3.57,6.38,7.7,12.5a.64.64,0,0,0,.81.21c1.38-.68,3.33-11,3.66-12.9,1.36-7.74-4.59-14.67-11.21-17.79a80.4,80.4,0,0,1-12.62-7.33.68.68,0,0,1-.17-.95.65.65,0,0,1,.45-.28c5.47-.94,12.62-.43,16.48-.46s8-.63,11.46,1.34A27.49,27.49,0,0,0,519.46,389c4.06-1,12.45-7.85,11.79-12.93a.77.77,0,0,0-.73-.65A124,124,0,0,1,516,374.3c-8.77-1.2-13.36,1.87-20.63,5.84-3.85,2.11-9.84,1.32-14.07.69q-.5-.07-.06-.33c5.72-3.41,12.47-12,9.42-19.2a1.13,1.13,0,0,0-1.47-.6,1,1,0,0,0-.25.15c-1.86,1.47-3.68,2.95-5.48,4.44-3.18,2.65-8.17,5.38-11.42,9.6a1.29,1.29,0,0,0-.28.93l.31,4.36a1.49,1.49,0,0,1-1.38,1.58,1.41,1.41,0,0,1-.29,0c-14.9-2.05-30.88-3.59-44.33-7.13a159,159,0,0,1-42.29-18"/><path class="cls-1" d="M383.73,356.61c-.56-4.88,1.22-8.19,5.29-11.26A48.86,48.86,0,0,0,407,319.08a17.13,17.13,0,0,1,2.51-4.66c2.71-3.86,3.76-7.9,5-12.28,1.57-5.57-2-10.91,3.23-14.87a25.64,25.64,0,0,1,15.18-5.51c3.27-.07,7,1.3,10.47,1.85a1,1,0,0,0,1.12-.81,1,1,0,0,0,0-.35c-.9-4.58-4.33-4.68-7.94-5.95a1.59,1.59,0,0,1-.77-.58c-7.35-10.05-12.54-16.66-25.58-18.15-7.87-.89-13.11,2.35-18.8,7.42q-12.35,11-24.22,22.52c-14,13.55-28.08,29.34-29.44,49.11a.47.47,0,0,1-.51.44h0a63.67,63.67,0,0,0-12-.34c-14.25.92-28.28,2.11-42.43.66q-18.84-1.93-37.67-4.67a1,1,0,0,1-.85-.82,31.53,31.53,0,0,0-3.59-9.73,1.5,1.5,0,0,1,.55-2l.17-.08c4.33-1.83,8.45-3.65,12.07-6.63q22.44-18.48,21.08-48.78c-.19-4.2-1.38-11.34-.13-15.21a1.13,1.13,0,0,1,.68-.72l8.9-3.52a1.58,1.58,0,0,0,.88-2,1.42,1.42,0,0,0-.12-.25c-.78-1.25-5.68-1.84-8.22-2-3-.2-5-6.08-7-7-16.87-7.29-31.5.93-38.71,16.37a9.86,9.86,0,0,1-2.54,3.4c-6.5,5.51-12.64,10.65-17.95,17.58q-9,11.7-18.13,23.25c-6.47,8.18-10.89,19.16-16.33,28.23a.4.4,0,0,1-.54.14l-.07-.06c-24.65-23.92-36.15-59.89-49.56-91-11.6-26.88-26.12-50-50.73-66q-2.3-1.49.37-2.12A146.59,146.59,0,0,0,118,146.42a.34.34,0,0,1,.47.12l0,0q7.83,17.58,15.48,35.22c2.14,4.94,2.5,7.53,8.29,6.78,2-.26,3.21-.27,3.57-2.69.41-2.83.61-5.41-.65-8.15q-6.6-14.3-12.51-28.88c-1.87-4.63-2.62-8.18,1.7-11.25a1.44,1.44,0,0,1,1.69,0l16.53,12a1.47,1.47,0,0,0,2-.32,1.79,1.79,0,0,0,.2-.39c.83-2.43-8-14.84-9.75-17.67a.89.89,0,0,1,.22-1.19c3.91-3,10.38-8,15.28-7,5.95,1.19,22.77,2.3,20.73,12.52-.93,4.66-2.36,10.63-.06,14.83a31,31,0,0,0,9.34,10.5.62.62,0,0,0,.86-.13.77.77,0,0,0,.12-.28q1.2-8.25,3.08-16.65c1.18-5.25-5.27-10.42-9.45-13.62-.28-.21-.25-.34.09-.41a24,24,0,0,1,14,1.16c8.59,3.1,20,6.91,27-1.72a99.75,99.75,0,0,0,10.1-15.17.33.33,0,0,0-.13-.45.32.32,0,0,0-.16,0q-10.48-.06-20.92,0c-9.47.06-11.64,10-19.32,11.48-7,1.38-11.49,1.54-17.14-3.42a1.55,1.55,0,0,0-.88-.38c-5.66-.6-10.9-3.25-16.75-4.09-.33,0-.37-.18-.11-.39a157.06,157.06,0,0,0,25-27.13c4.93-6.79,12.62-8.69,18-12.86q13-10.09,11.56-27.91A8.13,8.13,0,0,0,213,43.67a1.32,1.32,0,0,0-.87-.41,3.72,3.72,0,0,0-3.39,1.61,68.93,68.93,0,0,1-16.12,14.85c-4.34,2.87-6.18,5.56-7.79,10.15-2.13,6-.23,13.2-4.3,18.7a49.73,49.73,0,0,1-3.93,4.65,265.87,265.87,0,0,1-34,30.51.48.48,0,0,1-.67-.1v0q-9.63-14-20.35-27.09a73,73,0,0,0-10.32-10.33c-4.52-3.7-6-5.85-8.71-10.62q-7.05-12.4-22.08-11.11a15.07,15.07,0,0,0-8.12,3c-1.37,1-2,3-3.41,4.35a1.7,1.7,0,0,1-.84.41l-6.64,1a1,1,0,0,0-.85,1.16,1,1,0,0,0,.59.77c2.52,1.13,8.3,3,8.55,6.23.29,3.71-.54,8.8-.54,12.28q0,29.75,26.49,43.4a.85.85,0,0,1,.45.73c.08,4.66-1.37,9.3-6.38,10.67a133.09,133.09,0,0,1-35.51,4.72c-6.59,0-12.48-2-18.9-3.6A163.87,163.87,0,0,0,1,145.14a.72.72,0,0,0-.75.7v58.74a1.35,1.35,0,0,0,1.34,1.35h.1A79.47,79.47,0,0,0,43.66,190.7a5.08,5.08,0,0,1,4.34-.57c8.74,2.17,18,3.46,22.3,10.19,4,6.32,9.87,16.41,10.78,23.73A30,30,0,0,1,80,236.3"/><path class="cls-1" d="M383.73,356.61a12.77,12.77,0,0,0-1,3c-.55,2.61-4.5,1.72-3.45,5.67"/><path class="cls-1" d="M133,408.55a3.33,3.33,0,0,0-1.3,3.32.49.49,0,0,1-.37.54l-3.93.87a.51.51,0,0,0-.4.51v.51"/><path class="cls-1" d="M126,416.55a7.4,7.4,0,0,0-3.62,1c-4.48,2.54-9.22-4.34-10.25-7.59-.52-1.63-1.89-2.5-4.09-2.59"/><path class="cls-1" d="M92.73,244.09a2.08,2.08,0,0,0-2.06-.79,1.05,1.05,0,0,0-.84.58l-1.44,2.88a1.11,1.11,0,0,1-.79.59,1.63,1.63,0,0,1-.66,0,1.22,1.22,0,0,0-.88.15,3.49,3.49,0,0,0-1.77,3.84,1.34,1.34,0,0,1-.26,1l-1.9,2.42a1.3,1.3,0,0,0-.28.71L81.59,258a.86.86,0,0,1-.79.77l-4.79.35a1.35,1.35,0,0,0-.85.37l-3,2.75"/><path class="cls-1" d="M69.56,262.59a4.23,4.23,0,0,1,1.84-2.73.84.84,0,0,0,.35-.76c-.27-2.5,3.2-5.2,6-7.74a1.85,1.85,0,0,0,.46-.71l.28-.83a1.53,1.53,0,0,1,.49-.73c2.66-2.25-.28-5.07,1.37-8.43.36-.75.24-2.2-.35-4.36"/><path class="cls-1" d="M168.52,422.55c.76-.35,2.08-2.47.54-2.46"/><path class="cls-1" d="M194.15,94.64c-4.69,6-11.82,9.56-14.27,16.18-1,2.66-.47,6.25-.84,9.28a1.24,1.24,0,0,0,1.09,1.39,1.19,1.19,0,0,0,.46,0c5.62-1.45,9.9-.95,15-5,6.23-5,4.52-16.26,2.7-23.29a.57.57,0,0,0-.63-.43,5.14,5.14,0,0,0-3.53,1.94"/><path class="cls-1" d="M365.1,401.26a.44.44,0,0,0,.55,0,125.29,125.29,0,0,0,11.55-12.43c3.6-4.44,1.16-10.65-2.28-14.26a.38.38,0,0,0-.55,0,.27.27,0,0,0-.07.08,63.36,63.36,0,0,1-6.6,8.52,16,16,0,0,0-3.46,5.1c-1.19,3.24-2.5,10.65.86,13.05"/><path class="cls-2" d="M211.12,525c3.14,7.7,9.24,12.12,15.12,17.57a4.18,4.18,0,0,0,1.9,1.15,1.56,1.56,0,0,0,1.83-1.21l0-.25c.22-5.67-.59-12.53-4.45-16.88-3.19-3.58-9.86-6.16-13.45-9.16a28.94,28.94,0,0,1-7.32-9.2c-.58-1.13-1.08-1.09-1.49.12a.78.78,0,0,0,0,.6q4.33,8.82,7.79,17.26"/><path class="cls-1" d="M104.7,141.27a3.15,3.15,0,0,1,3.84,2,.47.47,0,0,0,.61.25.55.55,0,0,0,.19-.15,1.58,1.58,0,0,1,2.15-.56c.57.29.8.05.68-.72-.07-.42.15-.76.65-1,1-.48.78-.72-.55-.72l-11,0a.73.73,0,0,0-.73.72l-.16,4.34c0,.84.26,1,.88.41a9.94,9.94,0,0,0,2.64-3.9,1.15,1.15,0,0,1,.85-.72"/><path class="cls-1" d="M265.71,243.49c.26-.5-.23-1.26-1.09-1.71h0c-.85-.44-1.76-.4-2,.09h0c-.25.5.23,1.26,1.09,1.7h0c.86.45,1.76.41,2-.08h0"/><path class="cls-1" d="M211.51,302.93l2.36,1.18c.38.19.54.08.47-.35-.51-3.21,2.22-1.94,3.23-3.64q.36-.6-.33-.57a10.14,10.14,0,0,0-5.84,2.21.7.7,0,0,0-.13,1,.75.75,0,0,0,.24.19"/><path class="cls-1" d="M210,311.65c1.57.86,6-2,7.33-2.94,3-2.16,6.12-3.38,9-5.57a.55.55,0,0,0,.1-.78.86.86,0,0,0-.14-.13l-.41-.26a.89.89,0,0,0-.92,0c-5.56,3.12-8.57,6.92-15.5,9.15q-.57.18-.06.48a.69.69,0,0,0,.62.08"/><path class="cls-1" d="M184.24,328.84A30.84,30.84,0,0,0,198,333a.63.63,0,0,0,.66-.6v-.08l-1.16-12.8a.5.5,0,0,0-.54-.45.53.53,0,0,0-.22.08L184.2,327.2a1,1,0,0,0-.29,1.33,1,1,0,0,0,.33.31"/><path class="cls-1" d="M232,323.56c.41,2.43,3,10.59,6.44,10.12a1.25,1.25,0,0,0,1.06-1.41,1.17,1.17,0,0,0-.19-.51c-1.08-1.64-5.33-10-7-9a.76.76,0,0,0-.35.79"/><path class="cls-1" d="M229.33,329.53c-2.85-1.85-2-5.51-6.75-5.39-3.65.1-6.8,6-7.51,9.07a.36.36,0,0,0,.28.44h.09l15.86-.44a.34.34,0,0,0,.32-.35v0a4.84,4.84,0,0,0-2.29-3.3"/><path class="cls-1" d="M380.56,332.12c1.89,1.6,9.05-3.31,10.54-4.73.95-.9.87-1-.24-.32a38.52,38.52,0,0,1-10.15,4.37c-.48.13-.53.35-.15.68"/><path class="cls-1" d="M233.61,503.07c0-.63-1.89-1.07-4.17-1h0c-2.28.09-4.11.68-4.08,1.31s1.89,1.08,4.17,1h0c2.28-.09,4.11-.68,4.08-1.32"/><path class="cls-2" d="M383.73,356.61a12.77,12.77,0,0,0-1,3c-.55,2.61-4.5,1.72-3.45,5.67L378.1,365a.63.63,0,0,0-.72.34c-.42.84,1.95,3.77,2.54,4.41,2.34,2.5,7.08,3.49,10,5.37,5.88,3.73,6.71,13.78,6.74,20a1,1,0,0,1-.89,1c-2.26.21-8.26-6.11-10-7.83a13.65,13.65,0,0,1-4.06-9.17,6.16,6.16,0,0,0-1.34-2.91,1.86,1.86,0,0,0-.75-.59c-2.93-1.23-4.12-2.7-5.23-5.94-3.09-9-15.62-13.48-23.17-15.83a1.27,1.27,0,0,0-.94.07,13.34,13.34,0,0,0-3.27,2q-13.74,12.62-18.42,17.33a14.16,14.16,0,0,1-10.31,4.48,1.58,1.58,0,0,1-1-.37q-2.74-2.31-1.35-6a.66.66,0,0,0-1-.79c-4.78,3.14-10.42,7.79-16.34,6.91a.69.69,0,0,1-.59-.8.65.65,0,0,1,.18-.37,90,90,0,0,1,13.69-11.88,8.61,8.61,0,0,0,2.53-2.8c2.76-4.89,8.36-9.06,12.94-12.43a.33.33,0,0,0,.06-.46.32.32,0,0,0-.22-.13,4.48,4.48,0,0,0-1.41.12c-16.78,3.89-33.95,3.58-51,3.28a34.79,34.79,0,0,0-7.37.63.28.28,0,0,0-.1.51c12.6,7.84,21.37,17.41,30.91,28.52,6.59,7.67,14.84,14.31,24.85,16.92,8.22,2.14,15.9,3,24.74,5.59a46.08,46.08,0,0,1,29,24,1.46,1.46,0,0,0,.73.7q3.65,1.65,5.66-1.78a2,2,0,0,1,.75-.72,10.37,10.37,0,0,1,6.06-1.49,99.86,99.86,0,0,0,15.89.7,1.23,1.23,0,0,1,1.28,1.19,1.26,1.26,0,0,1-.2.73c-3.22,4.95-9.51,10.66-16,9.33-3.08-.62-5.89-3.29-10-4.05a.84.84,0,0,0-1,1.09c.72,2.27,2.8,3.43,4.59,4.79,5.9,4.5,14.43-.38,19.64,6.5q4.89,6.47,10.11,12.88a1.11,1.11,0,0,1-.15,1.56,1.07,1.07,0,0,1-.84.25c-7.8-.93-19.41-2.55-24.72-9.29-3.65-4.64-6.36-9.63-11.48-13a.33.33,0,0,0-.47.1.34.34,0,0,0,0,.35c2.6,5.11,4.7,10.74,8.36,14.82,8,9,22,15.54,33.94,10.62,9.06-3.74,19.25-.36,27.29,3.42A1.61,1.61,0,0,1,447,469a1.65,1.65,0,0,1-.52.62,69.25,69.25,0,0,1-11.67,6.69c-7.79,3.49-15.8-.48-22.32-4.29A32.29,32.29,0,0,0,399.21,468a.91.91,0,0,0-.74,1.56c3.26,3.14,7.76,7.33,5.67,12.55a46.52,46.52,0,0,1-7.45,12.48,1.55,1.55,0,0,1-2.19.2,1.31,1.31,0,0,1-.23-.24c-8.45-10.89,1.57-15.24,2-25.15a1.16,1.16,0,0,0-.34-.86c-9.32-9.29-18.91-13.86-23.1-27.49a.66.66,0,0,0-1.2-.15q-3,5-5.49,10.16c-3.6,7.46,3.59,15.87-.55,22.54a103,103,0,0,0-5.84,11.35,1.07,1.07,0,0,1-1.4.51l-.12-.07c-2-1.26-4.66-11-5.26-13.49-1.11-4.53,3.81-9.92,5.9-14.16a123.55,123.55,0,0,1,10.7-17.84,9.88,9.88,0,0,0,1.13-6.29C367,412.25,343.82,408.44,326,405.45a81.76,81.76,0,0,1-20.12-6.12.81.81,0,0,0-1.08.42.74.74,0,0,0-.07.39A39.88,39.88,0,0,1,301,419.92c-2.24,4.81-5.57,12.52-.38,16.84a49.77,49.77,0,0,0,13.19,7.92c6.63,2.7,12.09,6,11.34,13.74-.24,2.55-2.79,13.55-5.73,14.25a1.13,1.13,0,0,1-1.24-.51,106.36,106.36,0,0,1-10.71-23.9c-1.37-4.48-8.46-8.52-12.42-10.44-.3-.15-.36-.08-.17.2a68.11,68.11,0,0,1,6.57,11.83c3,7-1.23,17.15-5.7,22.39a1.44,1.44,0,0,1-2,.15,1.27,1.27,0,0,1-.38-.51l-6.94-16a1.75,1.75,0,0,1-.13-1c1.19-7.29,7.34-12.33,7.45-19.91.13-8.11,1.82-15.93,2.87-24.05a.86.86,0,0,0-.74-1,.81.81,0,0,0-.71.24,54.09,54.09,0,0,0-6.39,7.71c-2.34,3.4-1.19,7.34-3.76,10.83-3.31,4.48-8.91,8.3-13.06,12.19a.43.43,0,0,1-.61,0,.41.41,0,0,1-.12-.33q.36-7.57.09-15.14c-.3-8.15,8.94-9.84,14.4-12.08,4.48-1.84,7-4.75,9.51-8.6a1.82,1.82,0,0,0,.29-.93c.19-12.93-17.86-27-27.41-33.78q-13.77-9.74-33.08-10.94-18.87-1.18-31.19-.69c-3.32.13-7.88,20.7-12.2,23.89-1.7,1.26-10,3-10.66-.43-.76-4.05-1.26-7.85.66-11.76a94.56,94.56,0,0,0,5-12.34.45.45,0,0,0-.28-.56h0a89.53,89.53,0,0,1-44.57-24,1.42,1.42,0,0,0-2,0,.69.69,0,0,0-.11.13,199.45,199.45,0,0,0-21.67,36c-7,15.08,3.16,30.38,15.09,39.27a3.33,3.33,0,0,0-1.3,3.32.49.49,0,0,1-.37.54l-3.93.87a.51.51,0,0,0-.4.51v.51c-1.9-1.73-1.19,1.78-1,2.25a7.4,7.4,0,0,0-3.62,1c-4.48,2.54-9.22-4.34-10.25-7.59-.52-1.63-1.89-2.5-4.09-2.59-3.69-8-4.54-15-5.33-24.32-2.62-30.75,22-50.77,27-78.9a1.88,1.88,0,0,0-.09-1q-7.41-18.94-13.72-38.22a196.08,196.08,0,0,0-20.33-43.29.58.58,0,0,0-.81-.17.57.57,0,0,0-.25.4c-.41,2.93.43,5.84.14,8.62q-.74,6.82-1.89,13.6a2.08,2.08,0,0,0-2.06-.79,1.05,1.05,0,0,0-.84.58l-1.44,2.88a1.11,1.11,0,0,1-.79.59,1.63,1.63,0,0,1-.66,0,1.22,1.22,0,0,0-.88.15,3.49,3.49,0,0,0-1.77,3.84,1.34,1.34,0,0,1-.26,1l-1.9,2.42a1.3,1.3,0,0,0-.28.71L81.59,258a.86.86,0,0,1-.79.77l-4.79.35a1.35,1.35,0,0,0-.85.37l-3,2.75c-.65-1-1.51-.9-2.59.35a4.23,4.23,0,0,1,1.84-2.73.84.84,0,0,0,.35-.76c-.27-2.5,3.2-5.2,6-7.74a1.85,1.85,0,0,0,.46-.71l.28-.83a1.53,1.53,0,0,1,.49-.73c2.66-2.25-.28-5.07,1.37-8.43.36-.75.24-2.2-.35-4.36a30,30,0,0,0,1.06-12.25c-.91-7.32-6.73-17.41-10.78-23.73-4.32-6.73-13.56-8-22.3-10.19a5.08,5.08,0,0,0-4.34.57A79.47,79.47,0,0,1,1.72,205.93a1.35,1.35,0,0,1-1.44-1.26v-58.8a.73.73,0,0,1,.72-.73H1a163.87,163.87,0,0,1,34.35,4.4c6.42,1.57,12.31,3.6,18.9,3.6a133.09,133.09,0,0,0,35.51-4.72c5-1.37,6.46-6,6.38-10.67a.85.85,0,0,0-.45-.73q-26.5-13.67-26.49-43.4c0-3.48.83-8.57.54-12.28-.25-3.24-6-5.1-8.55-6.23a1,1,0,0,1-.52-1.33,1,1,0,0,1,.78-.6l6.64-1a1.7,1.7,0,0,0,.84-.41c1.44-1.33,2-3.3,3.41-4.35a15.07,15.07,0,0,1,8.12-3q15-1.29,22.08,11.11c2.71,4.77,4.19,6.92,8.71,10.62a73,73,0,0,1,10.32,10.33q10.72,13.14,20.35,27.09a.47.47,0,0,0,.66.13h0a265.87,265.87,0,0,0,34-30.51,49.73,49.73,0,0,0,3.93-4.65c4.07-5.5,2.17-12.66,4.3-18.7,1.61-4.59,3.45-7.28,7.79-10.15a68.93,68.93,0,0,0,16.12-14.85,3.72,3.72,0,0,1,3.39-1.61,1.32,1.32,0,0,1,.87.41,8.13,8.13,0,0,1,2.41,5.24q1.41,17.82-11.56,27.91c-5.36,4.17-13,6.07-18,12.86a157.06,157.06,0,0,1-25,27.13c-.26.21-.22.34.11.39,5.85.84,11.09,3.49,16.75,4.09a1.55,1.55,0,0,1,.88.38c5.65,5,10.19,4.8,17.14,3.42,7.68-1.51,9.85-11.42,19.32-11.48q10.44-.06,20.92,0a.33.33,0,0,1,.33.33.47.47,0,0,1,0,.16,99.75,99.75,0,0,1-10.1,15.17c-7,8.63-18.38,4.82-27,1.72a24,24,0,0,0-14-1.16c-.34.07-.37.2-.09.41,4.18,3.2,10.63,8.37,9.45,13.62q-1.89,8.4-3.08,16.65a.62.62,0,0,1-.71.52.54.54,0,0,1-.27-.11,31,31,0,0,1-9.34-10.5c-2.3-4.2-.87-10.17.06-14.83,2-10.22-14.78-11.33-20.73-12.52-4.9-1-11.37,3.93-15.28,7a.89.89,0,0,0-.22,1.19c1.76,2.83,10.58,15.24,9.75,17.67a1.47,1.47,0,0,1-1.86.91,2,2,0,0,1-.38-.2l-16.53-12a1.44,1.44,0,0,0-1.69,0c-4.32,3.07-3.57,6.62-1.7,11.25q5.91,14.58,12.51,28.88c1.26,2.74,1.06,5.32.65,8.15-.36,2.42-1.53,2.43-3.57,2.69-5.79.75-6.15-1.84-8.29-6.78q-7.65-17.64-15.48-35.22a.35.35,0,0,0-.46-.18l0,0a146.59,146.59,0,0,1-42.64,17.46q-2.67.63-.37,2.12c24.61,16.05,39.13,39.16,50.73,66,13.41,31.1,24.91,67.07,49.56,91a.39.39,0,0,0,.55,0l.06-.08c5.44-9.07,9.86-20.05,16.33-28.23q9.15-11.55,18.13-23.25c5.31-6.93,11.45-12.07,17.95-17.58a9.86,9.86,0,0,0,2.54-3.4c7.21-15.44,21.84-23.66,38.71-16.37,2,.88,4,6.76,7,7,2.54.17,7.44.76,8.22,2a1.57,1.57,0,0,1-.51,2.16l-.25.13-8.9,3.52a1.13,1.13,0,0,0-.68.72c-1.25,3.87-.06,11,.13,15.21q1.35,30.3-21.08,48.78c-3.62,3-7.74,4.8-12.07,6.63a1.49,1.49,0,0,0-.8,2,1.19,1.19,0,0,0,.08.16,31.53,31.53,0,0,1,3.59,9.73,1,1,0,0,0,.85.82q18.84,2.74,37.67,4.67c14.15,1.45,28.18.26,42.43-.66a63.67,63.67,0,0,1,12,.34.47.47,0,0,0,.53-.41v0c1.36-19.77,15.43-35.56,29.44-49.11q11.88-11.5,24.22-22.52c5.69-5.07,10.93-8.31,18.8-7.42,13,1.49,18.23,8.1,25.58,18.15a1.59,1.59,0,0,0,.77.58c3.61,1.27,7,1.37,7.94,5.95a1,1,0,0,1-.77,1.15.83.83,0,0,1-.35,0c-3.49-.55-7.2-1.92-10.47-1.85a25.64,25.64,0,0,0-15.18,5.51c-5.22,4-1.66,9.3-3.23,14.87-1.23,4.38-2.28,8.42-5,12.28a17.13,17.13,0,0,0-2.51,4.66A48.86,48.86,0,0,1,389,345.35C385,348.42,383.17,351.73,383.73,356.61Zm-279-215.34a3.15,3.15,0,0,1,3.84,2,.47.47,0,0,0,.61.25.55.55,0,0,0,.19-.15,1.58,1.58,0,0,1,2.15-.56c.57.29.8.05.68-.72-.07-.42.15-.76.65-1,1-.48.78-.72-.55-.72l-11,0a.73.73,0,0,0-.73.72l-.16,4.34c0,.84.26,1,.88.41a9.94,9.94,0,0,0,2.64-3.9A1.15,1.15,0,0,1,104.7,141.27Zm161,102.22c.26-.5-.23-1.26-1.09-1.71h0c-.85-.44-1.76-.4-2,.09h0c-.25.5.23,1.26,1.09,1.7h0c.86.45,1.76.41,2-.08Zm-54.2,59.44,2.36,1.18c.38.19.54.08.47-.35-.51-3.21,2.22-1.94,3.23-3.64q.36-.6-.33-.57a10.14,10.14,0,0,0-5.84,2.21.7.7,0,0,0-.13,1A.75.75,0,0,0,211.51,302.93ZM210,311.65c1.57.86,6-2,7.33-2.94,3-2.16,6.12-3.38,9-5.57a.55.55,0,0,0,.1-.78.86.86,0,0,0-.14-.13l-.41-.26a.89.89,0,0,0-.92,0c-5.56,3.12-8.57,6.92-15.5,9.15q-.57.18-.06.48A.69.69,0,0,0,210,311.65Zm-25.72,17.19A30.84,30.84,0,0,0,198,333a.63.63,0,0,0,.66-.6v-.08l-1.16-12.8a.5.5,0,0,0-.54-.45.53.53,0,0,0-.22.08L184.2,327.2a1,1,0,0,0-.29,1.33A1,1,0,0,0,184.24,328.84ZM232,323.56c.41,2.43,3,10.59,6.44,10.12a1.25,1.25,0,0,0,1.06-1.41,1.17,1.17,0,0,0-.19-.51c-1.08-1.64-5.33-10-7-9A.76.76,0,0,0,232,323.56Zm-2.62,6c-2.85-1.85-2-5.51-6.75-5.39-3.65.1-6.8,6-7.51,9.07a.36.36,0,0,0,.28.44h.09l15.86-.44a.34.34,0,0,0,.32-.35v0A4.84,4.84,0,0,0,229.33,329.53Zm151.23,2.59c1.89,1.6,9.05-3.31,10.54-4.73.95-.9.87-1-.24-.32a38.52,38.52,0,0,1-10.15,4.37C380.23,331.57,380.18,331.79,380.56,332.12Z"/><path class="cls-2" d="M194.15,94.64a5.14,5.14,0,0,1,3.53-1.94.57.57,0,0,1,.63.43c1.82,7,3.53,18.31-2.7,23.29-5.12,4.09-9.4,3.59-15,5a1.25,1.25,0,0,1-1.52-.9,1.19,1.19,0,0,1,0-.46c.37-3-.15-6.62.84-9.28C182.33,104.2,189.46,100.66,194.15,94.64Z"/><path class="cls-2" d="M80,236.3c.59,2.16.71,3.61.35,4.36-1.65,3.36,1.29,6.18-1.37,8.43a1.53,1.53,0,0,0-.49.73l-.28.83a1.85,1.85,0,0,1-.46.71c-2.82,2.54-6.29,5.24-6,7.74a.84.84,0,0,1-.35.76,4.23,4.23,0,0,0-1.84,2.73c-13.7,8.66-28.94,16.26-41,27.42C16,301.51,7.85,319.08,2.93,335.2a1.23,1.23,0,0,1-1.09.87c-2.24.15-1.61-9.58-1.29-10.46C7.14,307.89,18.18,288.93,34.87,279q1.68-1-.15-1.71a18.77,18.77,0,0,0-14.13.06,1,1,0,0,0-.64.76C17.7,288.37,12.77,293,4,299.78c-.56.43-1.8,1.59-2.55,1.28a1.6,1.6,0,0,1-1-1.71c.66-4.84,1.35-15.18,5.06-18.35a64.38,64.38,0,0,1,6.52-5.11c2.37-1.51,5.36.61,6.78-2.05a.48.48,0,0,0-.19-.64l-.05,0c-3.94-1.58-6.25-.72-9.91,1.67-2.25,1.47-9.34,5.6-8.65.13a65.69,65.69,0,0,0,.48-9.13c-.15-9.34,18.74,2,21.11,3.52a.66.66,0,0,0,.8-.06c.62-.56.6-1.16-.06-1.81-4.61-4.49-5.32-8.68-3.83-15.1.64-2.74,3.31-13.53,7.47-10.8a1.5,1.5,0,0,1,.6.76c2.83,7.9,9.14,17.77,1.63,25.32a1.76,1.76,0,0,0,0,2.49,1.79,1.79,0,0,0,.89.47c10.48,2.11,18.08-.81,26.68-7.53C65.74,255.37,75.34,248.84,80,236.3Z"/><path class="cls-2" d="M92.73,244.09c-1.93,10-6.79,17.77-12.58,25.92q-3.48,4.89.83,10.1c8.87,10.7,19,27.37,9,40.65q-.11.14-6.78,6.82C78,332.69,70.1,343.41,71.57,351.19a1.65,1.65,0,0,0,2.8.84c3.78-3.91,7.37-3.16,12.31-1.18,3,1.2,12.79,4.32,14,7.18a1.69,1.69,0,0,1-.92,2.2l-.18.06q-5.11,1.45-9.55,3.18c-9.58,3.73-12.14-7.94-18.92-9a.45.45,0,0,0-.52.37v.05a24.15,24.15,0,0,0,1.31,9.49c2.25,6.4,9.8,8,11.58,14.51,1.34,4.94,4.54,14.64,3.25,17.78A.59.59,0,0,1,86,397a12.23,12.23,0,0,1-3.52-2.08C76.21,390,67.8,382.68,66.73,375.62c-.39-2.59.31-5.48.51-8.37.34-4.91-4-8-2.5-13.67q1.8-6.91,3.21-13.93a1.44,1.44,0,0,1,.46-.82,15.89,15.89,0,0,0,3-4.31q3.12-6,6.67-11.57a.3.3,0,0,0-.09-.4.28.28,0,0,0-.25,0c-6.68,2.48-13.88,1.89-18.68,7.63-1.78,2.14.16,7.88.81,10.41,1.9,7.38-.95,10.12-5.8,15.09a1,1,0,0,1-1.62-.46,63.5,63.5,0,0,0-2.76-8.88c-2.17-5.49,1.53-11.15,3.42-15.71a.36.36,0,0,0-.61-.36c-1.57,2-3.07,3.15-4.2,5.49a29.4,29.4,0,0,1-8.46,10.85,85.58,85.58,0,0,0-7,6.44,1.57,1.57,0,0,1-2.67-.78c-1.1-5.26-.54-14.06,4.31-17.52C37,333,42.06,332.12,45.44,331c5.31-1.84,9.51-3.22,12.43-7.34a.81.81,0,0,0-.19-1.12.79.79,0,0,0-.8-.07c-9.72,4.53-15.52-1.33-18.77-10.11-.82-2.2-.45-3,1.94-3.09,4.35-.2,8.5.06,12.2,2.79l11,8.08a2.41,2.41,0,0,0,1.88.41c11.37-2.32,24.35-10.19,17.44-24.14a50.25,50.25,0,0,0-6.76-10.22c-3-3.58-8.91-11-7-15.68,1.06-2.65,2.21-5.39,3.43-8.22l3-2.75a1.35,1.35,0,0,1,.85-.37l4.79-.35a.86.86,0,0,0,.79-.77l.26-2.55a1.3,1.3,0,0,1,.28-.71l1.9-2.42a1.34,1.34,0,0,0,.26-1,3.49,3.49,0,0,1,1.77-3.84,1.22,1.22,0,0,1,.88-.15,1.63,1.63,0,0,0,.66,0,1.11,1.11,0,0,0,.79-.59l1.44-2.88a1.05,1.05,0,0,1,.84-.58A2.08,2.08,0,0,1,92.73,244.09Z"/><path class="cls-2" d="M383.73,356.61a159,159,0,0,0,42.29,18c13.45,3.54,29.43,5.08,44.33,7.13a1.48,1.48,0,0,0,1.66-1.27c0-.1,0-.2,0-.3l-.31-4.36a1.29,1.29,0,0,1,.28-.93c3.25-4.22,8.24-6.95,11.42-9.6,1.8-1.49,3.62-3,5.48-4.44a1.12,1.12,0,0,1,1.57.19,1.35,1.35,0,0,1,.15.26c3.05,7.2-3.7,15.79-9.42,19.2q-.44.25.06.33c4.23.63,10.22,1.42,14.07-.69,7.27-4,11.86-7,20.63-5.84a124,124,0,0,0,14.57,1.12.77.77,0,0,1,.73.65c.66,5.08-7.73,11.92-11.79,12.93a27.49,27.49,0,0,1-20.92-3.16c-3.44-2-7.7-1.37-11.46-1.34s-11-.48-16.48.46a.69.69,0,0,0-.57.78.71.71,0,0,0,.29.45,80.4,80.4,0,0,0,12.62,7.33c6.62,3.12,12.57,10.05,11.21,17.79-.33,1.87-2.28,12.22-3.66,12.9a.64.64,0,0,1-.81-.21q-4.14-6.12-7.7-12.5c-2.49-4.44-2.68-10.12-4.71-14.39q-5-10.53-17.46-12.18-14.88-2-29.7-4.32c-4.45-.7-9.24-2.62-13.93-3.26a.75.75,0,0,0-.85.64.77.77,0,0,0,.27.68c8.88,7.33,15.61,12.5,27.57,12.88a46.57,46.57,0,0,1,8.12.67c7.23,2.21,10.64,11.75,13.73,17.95a.61.61,0,0,1-.21.77c-.53.33-12.82-2.75-14.56-3.05-3.44-.6-7.44-3.43-10.42-6.18-4.88-4.49-9.41-9-15.39-11.81a.83.83,0,0,0-1.11.4.84.84,0,0,0,0,.77c3.1,5.28,6.54,9.42,3,15.67a82.4,82.4,0,0,1-7.48,11.06,1.16,1.16,0,0,1-1.63.17,1.14,1.14,0,0,1-.27-.31q-7.2-12,.76-21.29c2.35-2.75,2.37-5.75,1.9-9.07a1.47,1.47,0,0,0-.44-.84c-10-9.57-26-16-39.94-21.16-1-3.95,2.9-3.06,3.45-5.67A12.77,12.77,0,0,1,383.73,356.61Z"/><path class="cls-2" d="M365.1,401.26c-3.36-2.4-2.05-9.81-.86-13.05a16,16,0,0,1,3.46-5.1,63.36,63.36,0,0,0,6.6-8.52.39.39,0,0,1,.53-.13l.09.07c3.44,3.61,5.88,9.82,2.28,14.26a125.29,125.29,0,0,1-11.55,12.43A.44.44,0,0,1,365.1,401.26Z"/><path class="cls-2" d="M127,414.3v-.51a.51.51,0,0,1,.4-.51l3.93-.87a.49.49,0,0,0,.37-.54,3.33,3.33,0,0,1,1.3-3.32c5.21,4.23,12.27,11.19,18.69,13a38.08,38.08,0,0,0,16.81,1c.76-.35,2.08-2.47.54-2.46-7.54-7-2.55-16.38,1.16-26.17a1,1,0,0,1,.66-.62,3.23,3.23,0,0,1,4.16,1.56c4.49,7.82,7.36,19.07-.68,25.57a.48.48,0,0,0-.07.69l0,.05a2.41,2.41,0,0,0,2.17-.15c8.41-6.06,14.54-8.18,24.83-4.58q7.83,2.74,15.38,6.24c7.91,3.65-1.94,7.67-5,8.81-12.8,4.84-23.27-8.1-34.53-6.26-.34,0-.36.16-.05.33,2.87,1.56,6,1.25,8.48,2.75,9.57,5.68,9.84,13.25,10.84,23.16a1.5,1.5,0,0,1-2.49,1.27c-4.29-3.83-9.84-7.67-13-12.2-2.09-3-2.25-7.19-4.32-10.16-2.76-4-11.21-1.64-15.18-.65-.33.08-.36.22-.08.41a88.49,88.49,0,0,1,31.81,39.7q7.41,18,12.21,27a19.87,19.87,0,0,0,7.38,7.32.78.78,0,0,0,.84,0c6.64-4.7,7.23-9.75,17-9.55a125.84,125.84,0,0,0,16.12-.67.33.33,0,0,1,.37.29.66.66,0,0,1,0,.14c-1.17,4.09-5.26,13.74-10,14.54a32.26,32.26,0,0,1-16.82-1.6,3.51,3.51,0,0,0-2.16.13.33.33,0,0,0-.22.42.37.37,0,0,0,.07.12c1.1,1.25,2,2.45,3.63,3,7.25,2.59,12.07,6.44,20.59,4,17.44-5,20.1,6.61,28.26,17.75a.87.87,0,0,1-.19,1.2.86.86,0,0,1-.76.12q-10.77-3.51-21-6c-3.23-.77-7.64-3.24-10.87-5.74s-5.78-4.09-7.4-4.55a60.41,60.41,0,0,1-17.12-8.13,43,43,0,0,0-9.54-4.53,1,1,0,0,1-.63-.64,48,48,0,0,0-2.4-5.75c-9.5-19.67-16.6-43.38-33.83-58.4a150,150,0,0,0-25.19-17.24C136.88,420.55,132.06,417,127,414.3Zm106.59,88.77c0-.63-1.89-1.07-4.17-1h0c-2.28.09-4.11.68-4.08,1.31s1.89,1.08,4.17,1h0C231.81,504.3,233.64,503.71,233.61,503.07Z"/><path class="cls-2" d="M108.06,407.34c2.2.09,3.57,1,4.09,2.59,1,3.25,5.77,10.13,10.25,7.59a7.4,7.4,0,0,1,3.62-1c6.07,9.13.72,15-4.93,22.12-4.28,5.41-10.61,14.54-8.07,21.16,2.88,7.46,12.19,11.9,19.77,12.5a1.58,1.58,0,0,0,.92-.23c8-5,14-13.1,24.69-10.23a1,1,0,0,1,.65.61c1.11,3.22-3.55,9-5.73,11.16-6.68,6.54-12.79-1-15.86.88-.36.22-.34.41,0,.58a8.16,8.16,0,0,1,3.93,3.53,1.45,1.45,0,0,0,.76.66c5.37,2.1,10.73,4.24,16.19,6,8.9,2.81,10,10.61,8.72,18.57q-.37,2.35-2.27.9-5.7-4.39-10.67-9c-3.62-3.32-5.62-7.47-8.29-11.61-.52-.81-.94-1.09-1.88-.79a.46.46,0,0,0-.3.58l0,.06c1.13,2.2,4.48,6.52,4.13,8.82q-1,6.68-1.91,13.36a1.24,1.24,0,0,1-.46.81c-3.53,2.76-7.39-5.62-9-8-3.35-5,5-9.41,2-14.62a25.12,25.12,0,0,0-5.54-6.52,1.64,1.64,0,0,0-.77-.35l-12.47-1.9q-2.13-.33-.72,1.29c8.3,9.61,16,23.67,12.21,37a25.25,25.25,0,0,0-.94,8.33,28.78,28.78,0,0,1-.1,6.25c-1.78,7.65-11.52,15.65-17.35,20.45a1.59,1.59,0,0,1-2.23-.21,1.58,1.58,0,0,1-.33-1.29q1.28-7,2.53-14c1.23-6.84,7.55-9.15,11-14.64a20.84,20.84,0,0,0,3.18-12,1,1,0,0,0-1-.92,1,1,0,0,0-.51.17c-6.34,4.44-9.9,12.88-19.06,9.28q-5-2-10-3.39a1.39,1.39,0,0,1-1-1.72,1.34,1.34,0,0,1,.71-.85,188,188,0,0,1,17.25-7.58c4.48-1.71,5.6.36,9,2.54a1.08,1.08,0,0,0,.91.13q4-1.26,2.67-5.12-3.84-11.12-10.52-17.91c-4.33-4.41-8.65-8.12-10.77-13.34-5.86-14.45,6.83-27.82,13.31-39.47a9.87,9.87,0,0,0,.64-2,1.52,1.52,0,0,0-.08-.94C115.74,419.07,111,414,108.06,407.34Z"/><path class="cls-3" d="M169.06,420.09c1.54,0,.22,2.11-.54,2.46Z"/><path class="cls-2" d="M329.28,59.06c-.73,3.78-4.39,16.47-5.61,20.26H266.93V75.9C278,74.8,279,74.19,279,63.82V15.38c0-10.38-1.22-11-11-12V0h32.7V3.42c-9.76,1-11.11,1.46-11.11,12V65c0,7.44,1,9.15,7.94,9.27l9.64.13c6.22,0,8.05-.74,10.86-3.79,3.05-3.17,5.61-8.05,7.44-12.57Z"/><path class="cls-2" d="M365.89,24.28c15.25,0,26.6,11.6,26.6,27.34,0,19.76-14.64,29.16-26.6,29.16-16.84,0-27.09-13.54-27.09-27.21C338.8,33.68,354.3,24.28,365.89,24.28Zm-1.47,4.15c-7.44,0-14.15,7.2-14.15,21.36,0,15.49,6.83,26.72,16.84,26.72C374.67,76.51,381,71,381,54.3,381,40,375.16,28.43,364.42,28.43Z"/><path class="cls-2" d="M433,40.27c-2.2-7.08-5.37-12-12.81-12-4.27,0-7.57,3.05-7.57,7.93,0,5.25,3.54,7.69,10.37,10.86,10.5,5,15.75,8.67,15.75,16.72,0,11.22-10.25,17-19.89,17a31.88,31.88,0,0,1-14.53-3.42c-.61-3.54-1.7-10.25-2.19-14.27l3.54-.61c2.19,7.81,6.46,14.15,15,14.15,4.63,0,8.54-3.17,8.54-8.3,0-5.49-3.3-8.29-9.76-11.47-8.55-4.15-15.5-8-15.5-16.84s7.56-15.74,19-15.74c5.13,0,9.28,1.22,11.72,1.59.36,2.93,1.22,10.62,1.83,13.54Z"/><path class="cls-2" d="M332.33,137.11a45.89,45.89,0,0,0-3.9-10.12c-1.95-3.3-3.17-4.15-9.89-4.15h-12.2v59.42c0,9.52,1,10.86,12.57,11.6v3.41H283.4v-3.41c11.35-.74,12.33-2,12.33-11.6V122.84H284.62c-6.71,0-8.66.73-10.74,4.39-1.46,2.44-2.44,5.37-4,9.88H266.2c.73-7.44,1.46-15.13,1.83-22h2.8c1.83,2.93,3.18,2.81,6.59,2.81h48.32c3.42,0,4.4-.49,6.23-2.81h2.93c0,5.74.48,14.52,1.09,21.6Z"/><path class="cls-2" d="M360.16,142.24c15.25,0,26.6,11.59,26.6,27.33,0,19.77-14.65,29.17-26.6,29.17-16.84,0-27.09-13.55-27.09-27.21C333.07,151.64,348.56,142.24,360.16,142.24Zm-1.47,4.15c-7.44,0-14.15,7.2-14.15,21.35,0,15.5,6.83,26.73,16.84,26.73,7.56,0,13.91-5.5,13.91-22.21C375.29,158,369.43,146.39,358.69,146.39Z"/><path class="cls-2" d="M422.75,197.27H394.69v-3.41c7.69-.74,8.42-1.35,8.42-9.28V159.2c0-8-.49-8.42-7.57-9.27v-3.05a67.49,67.49,0,0,0,17.21-5V155.3c4.27-6.35,9.39-13.06,15.5-13.06,4.51,0,7.07,2.81,7.07,5.86a8.18,8.18,0,0,1-4.15,6.71,2.4,2.4,0,0,1-3.17-.25c-1.83-1.83-3.29-3.05-5.49-3.05-2.56,0-7.08,3.79-9.76,10v22.94c0,8,.61,8.66,10,9.4Z"/><path class="cls-2" d="M498.41,194.22c-2.56.49-11.72,1.95-18.91,4.52v-7.93c-2.2,1.34-5.37,3.05-7.57,4.39-4.88,2.8-8.18,3.54-9.64,3.54-9.76,0-22.7-9.77-22.7-26.85s14.89-29.65,31.61-29.65a24.81,24.81,0,0,1,8.3,1.34V125.64c0-7.81-.86-8-9.52-8.78v-3.17c6.1-.86,14.64-2.57,19.16-4.15v73.58c0,6.34.85,7.2,5.36,7.44l3.91.25Zm-18.91-41c-2.81-4.27-8.06-6.22-12.82-6.22-5.85,0-16.23,3.9-16.23,21.47,0,14.77,9.16,22.58,17,22.7,4.39,0,9.15-2.2,12.08-4.39Z"/><path class="cls-2" d="M531.48,142.24c15.25,0,26.6,11.59,26.6,27.33,0,19.77-14.64,29.17-26.6,29.17-16.84,0-27.09-13.55-27.09-27.21C504.39,151.64,519.88,142.24,531.48,142.24ZM530,146.39c-7.44,0-14.15,7.2-14.15,21.35,0,15.5,6.83,26.73,16.84,26.73,7.56,0,13.91-5.5,13.91-22.21C546.61,158,540.75,146.39,530,146.39Z"/><path class="cls-2" d="M598.59,158.22c-2.2-7.07-5.37-11.95-12.81-11.95-4.27,0-7.57,3-7.57,7.93,0,5.24,3.54,7.69,10.37,10.86,10.5,5,15.74,8.66,15.74,16.72,0,11.22-10.25,17-19.89,17a32,32,0,0,1-14.52-3.42c-.61-3.54-1.71-10.25-2.19-14.28l3.54-.61c2.19,7.81,6.46,14.16,15,14.16,4.64,0,8.55-3.17,8.55-8.3,0-5.49-3.3-8.3-9.77-11.47-8.54-4.15-15.49-8-15.49-16.84s7.56-15.74,19-15.74c5.13,0,9.28,1.22,11.72,1.59.36,2.92,1.22,10.61,1.83,13.54Z"/></g></g></svg>