<svg xmlns="http://www.w3.org/2000/svg" viewBox="0 0 56.25 115.54"><defs><style>.cls-1{fill:#fff;}</style></defs><title>Recurso 3</title><g id="Capa_2" data-name="Capa 2"><g id="ICONS"><path class="cls-1" d="M55.77.6A69.44,69.44,0,0,0,36.4.76C31.29,1.53,25.81,2.69,21.66,6c-9.41,7.38-6.11,21-8.29,31.23l-11.61.19a.47.47,0,0,0-.48.47.48.48,0,0,0-.15.32Q.58,48.3,0,58.43a.5.5,0,0,0,.63.48,34,34,0,0,1,12.67-.3.48.48,0,0,0,.27,0,538.66,538.66,0,0,0-.21,56.26.52.52,0,0,0,.79.4.4.4,0,0,0,.27.09l23.34.21a.5.5,0,0,0,.12-1,.45.45,0,0,0,.24-.41q0-28,0-56l16.63.22a.45.45,0,0,0,.47-.42.45.45,0,0,0,.29-.44q-.1-9.63-.19-19.28a.51.51,0,0,0-.24-1l-17.34-.89-.12,0c-.49-4.61-.87-10,2.57-13.56s9.94-3.64,14.63-3.24a.44.44,0,0,0,.48-.45.49.49,0,0,0,.87-.31Q56,10.21,55.87,1.59C56.4,1.56,56.37.68,55.77.6Zm-.94,18c-4.93-.43-11.64-.33-15.33,3.53s-3.35,9.9-2.79,15a.53.53,0,0,0,.94.27.29.29,0,0,0,.1,0l16.58.85.18,19.13-16.42-.22a.42.42,0,0,0-.4.22.48.48,0,0,0-.56.48q0,28.15,0,56.33a.48.48,0,0,0,.18.38l-22.88-.21-.08,0a539.7,539.7,0,0,1,.25-56.17.48.48,0,0,0-.77-.39.42.42,0,0,0-.26-.15A35.64,35.64,0,0,0,1,57.82q.55-9.72,1.09-19.45l11.31-.18a.47.47,0,0,0,.43-.29.43.43,0,0,0,.46-.35c2.11-9.74-1.13-23.09,7.43-30.38C26.06,3.5,32.09,2.35,37.55,1.6a68.77,68.77,0,0,1,17.32-.1l.31,17.27A.48.48,0,0,0,54.83,18.59Z"/></g></g></svg>