<svg xmlns="http://www.w3.org/2000/svg" viewBox="0 0 100.85 101.56"><defs><style>.cls-1{fill:#fff;}</style></defs><title>Recurso 2</title><g id="Capa_2" data-name="Capa 2"><g id="ICONS"><path class="cls-1" d="M98.62,15.05a22.29,22.29,0,0,0-8.85-10C82.63.63,74.37-.14,66.15.18a.42.42,0,0,0-.4-.18c-5.1.48-10.21.7-15.33.72S40.2.48,35.09,0a.4.4,0,0,0-.39.18C26.47-.14,18.22.63,11.07,5.1a22.41,22.41,0,0,0-8.85,10C-.14,20.55,0,26.68,0,32.55Q.09,52.82.17,73.07c0,5.8-.79,12.52,1.6,18a16.38,16.38,0,0,0,9.1,8.24c6.24,2.53,13.44,2.24,20.05,2.22,2.11,0,4.21,0,6.32-.12a.43.43,0,0,0,.38.16c4-.37,8.1-.57,12.15-.62h1.3q6.09.07,12.16.62a.43.43,0,0,0,.38-.16c2.1.07,4.21.12,6.32.12,6.61,0,13.8.31,20-2.22a16.32,16.32,0,0,0,9.09-8.24c2.4-5.47,1.58-12.19,1.6-18q.09-20.26.17-40.52C100.86,26.68,101,20.55,98.62,15.05Zm1.19,24.42-.15,36.07c0,5.64.7,12.27-2.63,17.18s-9.27,6.77-14.81,7.39a123.41,123.41,0,0,1-18.87.48.42.42,0,0,0-.12,0c-3.11-.28-6.21-.45-9.32-.55v-.07h-7a.2.2,0,0,1,0,.07c-3.11.1-6.22.27-9.32.55a.5.5,0,0,0-.13,0,123.48,123.48,0,0,1-18.87-.48c-5.53-.62-11.52-2.56-14.8-7.39S1.2,81.18,1.18,75.54L1,39.47C1,28.59-.53,15.92,8.67,8.09,16.36,1.54,26.38.74,36.13,1.26c0-.06,0-.12,0-.17q6,.52,12.11.61v0c.72,0,1.45,0,2.17,0s1.45,0,2.18,0v0q6.06-.09,12.1-.61s0,.11,0,.17c9.75-.52,19.77.28,27.46,6.83C101.37,15.92,99.85,28.59,99.81,39.47Z"/><path class="cls-1" d="M88.85,12.59c-5.25.37-10.49.59-15.75.64a.47.47,0,0,0-.47.45.54.54,0,0,0-.61.47,106,106,0,0,0-.41,13s0,0,0,0l0,.63a.51.51,0,0,0,.73.44h0l14.89,0a.52.52,0,0,0,.93-.27q.47-7.22.94-14.43C89.46,13.23,89.38,12.55,88.85,12.59Zm-1.64,14.6-14.6,0a104.62,104.62,0,0,1,.41-13s0,0,.08,0q7.52-.08,15-.59Q87.67,20.42,87.21,27.19Z"/><path class="cls-1" d="M90.73,40.41a.5.5,0,0,0-1-.16l-12.41.14a.42.42,0,0,0-.4.24.5.5,0,0,0-.57.61,28.25,28.25,0,0,1-4.26,23A26.76,26.76,0,0,1,50,75.47a26.72,26.72,0,0,1-21.84-11,28.23,28.23,0,0,1-4.46-23.1.5.5,0,0,0-.12-1L10.67,40a.5.5,0,0,0-.81.38L9.77,78.87c0,3.73-.65,8.9,3.62,10.6,2,.8,4.39.62,6.49.64l9.87.08,38,.34c8,.07,20.79,2.17,22.55-8.52a55.75,55.75,0,0,0,.31-8.77l0-10.94ZM84.88,88.32c-4.32,2.08-10,1.27-14.67,1.23l-33.55-.29L19.39,89.1c-2.57,0-5.81.28-7.53-2s-1.1-6.06-1.09-8.7L10.86,41l11.84.33C19.59,54.29,26.09,68.72,38.47,74.1c12.88,5.58,28.49,1,35.68-11.18a29.18,29.18,0,0,0,3.29-21.53l12.29-.14q-.08,16.5-.14,33C89.57,79.2,90.21,85.75,84.88,88.32Z"/><path class="cls-1" d="M59.5,35.44a15.67,15.67,0,0,0-17.43-1,.48.48,0,0,0-.48,0c-6.71,3.17-8.05,12.49-7.12,19.07,1,7.07,6.17,14,13.84,14.15S62.67,61.79,65.09,55A17.55,17.55,0,0,0,59.5,35.44Zm.12,26.25C56.48,64.78,52,67,47.5,66.63s-8.14-3.45-10.16-7.26c-3.13-5.88-3.29-16.48,1.73-21.81a.46.46,0,0,0,.66,0,14.67,14.67,0,0,1,21.64,1.11C67.06,45.59,65.87,55.54,59.62,61.69Z"/></g></g></svg>