<svg xmlns="http://www.w3.org/2000/svg" viewBox="0 0 56.25 115.54"><defs><style>.cls-1{fill:#fff;}</style></defs><title>Recurso 6</title><g id="Capa_2" data-name="Capa 2"><g id="ICONS"><path class="cls-1" d="M55.78.6A69.51,69.51,0,0,0,36.4.76C31.29,1.53,25.81,2.7,21.66,6c-9.41,7.38-6.11,21-8.29,31.23l-11.61.19a.48.48,0,0,0-.48.47.48.48,0,0,0-.15.32Q.58,48.3,0,58.43a.51.51,0,0,0,.64.48,33.91,33.91,0,0,1,12.66-.3.48.48,0,0,0,.27,0,535.93,535.93,0,0,0-.2,56.26.51.51,0,0,0,.78.4.42.42,0,0,0,.27.09l23.34.21a.5.5,0,0,0,.13-1,.46.46,0,0,0,.23-.41q0-28,0-56l16.62.22a.45.45,0,0,0,.47-.42.44.44,0,0,0,.29-.44q-.1-9.63-.19-19.28a.51.51,0,0,0-.23-1l-17.34-.89-.12,0c-.5-4.61-.88-10,2.57-13.56s9.93-3.64,14.62-3.24a.43.43,0,0,0,.48-.45.49.49,0,0,0,.87-.31Q56,10.21,55.87,1.59C56.4,1.56,56.37.68,55.78.6Zm-1,18c-4.93-.43-11.64-.33-15.33,3.53s-3.34,9.9-2.79,15a.53.53,0,0,0,.94.27.35.35,0,0,0,.11,0l16.57.85q.09,9.57.19,19.13l-16.43-.22a.45.45,0,0,0-.4.22.47.47,0,0,0-.55.48q0,28.17,0,56.33a.48.48,0,0,0,.18.38l-22.88-.21-.07,0a537,537,0,0,1,.24-56.17c0-.46-.46-.58-.77-.39a.42.42,0,0,0-.26-.15A35.58,35.58,0,0,0,1,57.82L2.12,38.37l11.31-.18a.47.47,0,0,0,.43-.29.43.43,0,0,0,.46-.35c2.11-9.74-1.13-23.09,7.43-30.38C26.07,3.5,32.09,2.35,37.55,1.6a68.77,68.77,0,0,1,17.32-.1q.16,8.63.31,17.27A.46.46,0,0,0,54.83,18.59Z"/><path class="cls-1" d="M39.5,22.12c-3.81,4-3.34,9.9-2.79,15a.53.53,0,0,0,.94.27.35.35,0,0,0,.11,0l16.57.85q.09,9.57.19,19.13l-16.43-.22a.45.45,0,0,0-.4.22.47.47,0,0,0-.55.48q0,28.17,0,56.33a.48.48,0,0,0,.18.38l-22.88-.21-.07,0a537,537,0,0,1,.24-56.17c0-.46-.46-.58-.77-.39a.42.42,0,0,0-.26-.15A35.58,35.58,0,0,0,1,57.82L2.12,38.37l11.31-.18a.47.47,0,0,0,.43-.29.43.43,0,0,0,.46-.35c2.11-9.74-1.13-23.09,7.43-30.38C26.07,3.5,32.09,2.35,37.55,1.6a68.77,68.77,0,0,1,17.32-.1q.16,8.63.31,17.27a.46.46,0,0,0-.35-.18C49.9,18.16,43.19,18.26,39.5,22.12Z"/></g></g></svg>