<svg xmlns="http://www.w3.org/2000/svg" viewBox="0 0 100.85 101.55"><defs><style>.cls-1{fill:#fff;}</style></defs><title>Recurso 5</title><g id="Capa_2" data-name="Capa 2"><g id="ICONS"><path class="cls-1" d="M98.62,15A22.32,22.32,0,0,0,89.77,5.1C82.63.62,74.37-.14,66.15.18a.4.4,0,0,0-.4-.18Q58.1.71,50.42.71T35.09,0a.39.39,0,0,0-.39.18C26.47-.14,18.22.62,11.07,5.1A22.43,22.43,0,0,0,2.22,15C-.14,20.54,0,26.68,0,32.55Q.09,52.8.17,73.06c0,5.8-.79,12.53,1.6,18a16.38,16.38,0,0,0,9.1,8.24c6.25,2.53,13.44,2.25,20.05,2.23,2.11,0,4.21-.06,6.32-.13a.41.41,0,0,0,.38.16c4-.36,8.1-.57,12.15-.62h1.3q6.09.07,12.16.62a.41.41,0,0,0,.38-.16c2.11.07,4.21.12,6.32.13,6.61,0,13.8.3,20-2.23a16.38,16.38,0,0,0,9.1-8.24c2.39-5.46,1.57-12.19,1.59-18q.09-20.27.17-40.51C100.86,26.68,101,20.54,98.62,15Zm1.19,24.42-.15,36.07c0,5.64.7,12.27-2.63,17.18s-9.27,6.77-14.81,7.39a123.41,123.41,0,0,1-18.87.48.42.42,0,0,0-.12,0c-3.1-.28-6.21-.45-9.32-.54v-.07c-.95,0-1.91,0-2.87,0H49.81c-1,0-1.92,0-2.87,0V100c-3.11.09-6.22.26-9.32.54a.5.5,0,0,0-.13,0,123.31,123.31,0,0,1-18.86-.48c-5.54-.62-11.53-2.56-14.81-7.39S1.21,81.17,1.18,75.53Q1.11,57.5,1,39.46C1,28.59-.52,15.92,8.67,8.09,16.36,1.54,26.38.73,36.13,1.25c0-.06,0-.11,0-.17q6,.52,12.11.62h0c.72,0,1.45,0,2.17,0s1.46,0,2.18,0h0q6.06-.11,12.1-.62c0,.06,0,.11,0,.17,9.75-.52,19.77.29,27.46,6.84C101.37,15.92,99.85,28.59,99.81,39.46Z"/><path class="cls-1" d="M92.18,8.09C84.49,1.54,74.47.73,64.72,1.25c0-.06,0-.11,0-.17q-6,.52-12.1.62h0c-.72,0-1.45,0-2.18,0s-1.45,0-2.17,0h0q-6.06-.11-12.11-.62c0,.06,0,.11,0,.17C26.38.73,16.36,1.54,8.67,8.09-.52,15.92,1,28.59,1,39.46q.08,18,.14,36.07c0,5.64-.7,12.27,2.64,17.18s9.27,6.77,14.81,7.39a123.31,123.31,0,0,0,18.86.48.5.5,0,0,1,.13,0c3.1-.28,6.21-.45,9.32-.54v-.07c1,0,1.91,0,2.87,0H51c1,0,1.92,0,2.87,0V100c3.11.09,6.22.26,9.32.54a.42.42,0,0,1,.12,0,123.41,123.41,0,0,0,18.87-.48c5.54-.62,11.52-2.56,14.81-7.39s2.61-11.54,2.63-17.18l.15-36.07C99.85,28.59,101.37,15.92,92.18,8.09ZM72,14.15a.53.53,0,0,1,.61-.47.47.47,0,0,1,.47-.45q7.89-.09,15.75-.64c.53,0,.61.63.26.89q-.47,7.22-.94,14.43a.53.53,0,0,1-.93.28l-14.89,0a.51.51,0,0,1-.73-.44c0-.21,0-.42,0-.63,0,0,0,0,0,0A105.77,105.77,0,0,1,72,14.15ZM41.59,34.44a.5.5,0,0,1,.48,0,15.65,15.65,0,0,1,17.43,1A17.56,17.56,0,0,1,65.09,55c-2.42,6.83-9.24,12.86-16.78,12.72S35.47,60.59,34.47,53.51C33.54,46.93,34.88,37.61,41.59,34.44ZM90.64,62.29c0,3.65,0,7.3,0,10.95A55.84,55.84,0,0,1,90.29,82c-1.75,10.68-14.6,8.58-22.55,8.51l-38-.33-9.87-.09c-2.1,0-4.48.17-6.49-.63C9.12,87.76,9.76,82.6,9.77,78.86L9.86,40.4a.5.5,0,0,1,.81-.38l12.93.36a.5.5,0,0,1,.12,1,28.25,28.25,0,0,0,4.46,23.1A26.73,26.73,0,0,0,50,75.47a26.74,26.74,0,0,0,22.1-11.24,28.23,28.23,0,0,0,4.26-23,.51.51,0,0,1,.57-.62.44.44,0,0,1,.4-.24l12.41-.13a.5.5,0,0,1,1,.15Z"/><path class="cls-1" d="M88.85,12.59q-7.86.54-15.75.64a.47.47,0,0,0-.47.45.53.53,0,0,0-.61.47,105.77,105.77,0,0,0-.41,13s0,0,0,0c0,.21,0,.42,0,.63a.51.51,0,0,0,.73.44l14.89,0a.53.53,0,0,0,.93-.28q.47-7.21.94-14.43C89.46,13.22,89.38,12.55,88.85,12.59Zm-1.64,14.6-14.6,0a104.62,104.62,0,0,1,.41-13l.08,0q7.52-.09,15-.6Q87.67,20.41,87.21,27.19Z"/><path class="cls-1" d="M90.73,40.4a.5.5,0,0,0-1-.15l-12.41.13a.44.44,0,0,0-.4.24.51.51,0,0,0-.57.62,28.23,28.23,0,0,1-4.26,23A26.74,26.74,0,0,1,50,75.47a26.73,26.73,0,0,1-21.84-11,28.25,28.25,0,0,1-4.46-23.1.5.5,0,0,0-.12-1L10.67,40a.5.5,0,0,0-.81.38L9.77,78.86c0,3.74-.65,8.9,3.62,10.61,2,.8,4.39.61,6.49.63l9.87.09,38,.33c8,.07,20.8,2.17,22.55-8.51a55.84,55.84,0,0,0,.31-8.77c0-3.65,0-7.3,0-10.95ZM84.88,88.31c-4.32,2.08-10,1.27-14.67,1.23l-33.55-.29L19.39,89.1c-2.57,0-5.81.27-7.52-2s-1.11-6.07-1.1-8.7L10.86,41l11.84.33c-3.11,12.92,3.39,27.36,15.77,32.73,12.88,5.59,28.49,1,35.68-11.17a29.21,29.21,0,0,0,3.29-21.54l12.29-.13q-.08,16.49-.14,33C89.57,79.2,90.21,85.75,84.88,88.31Z"/><path class="cls-1" d="M59.5,35.43a15.65,15.65,0,0,0-17.43-1,.5.5,0,0,0-.48,0c-6.71,3.17-8.05,12.49-7.12,19.07,1,7.08,6.17,14,13.84,14.16S62.67,61.78,65.09,55A17.56,17.56,0,0,0,59.5,35.43Zm.12,26.26C56.48,64.78,52,67,47.5,66.63s-8.14-3.46-10.16-7.27c-3.13-5.87-3.29-16.47,1.73-21.81a.46.46,0,0,0,.66,0,14.68,14.68,0,0,1,21.64,1.1C67.06,45.58,65.87,55.54,59.62,61.69Z"/></g></g></svg>