<svg xmlns="http://www.w3.org/2000/svg" viewBox="0 0 100.73 71.27"><defs><style>.cls-1{fill:#fff;}</style></defs><title>Recurso 4</title><g id="Capa_2" data-name="Capa 2"><g id="ICONS"><path class="cls-1" d="M100.56,29.41c0-5.54.48-11.32-.22-16.83a12.79,12.79,0,0,0-5.21-9.23C89.27-.79,82.19-.07,75.27.27L50.36.36,25.45.27c-6.92-.34-14-1.06-19.86,3.08A12.79,12.79,0,0,0,.38,12.58C-.32,18.09.15,23.87.16,29.41q0,9.23,0,18.45c0,4.69-.5,9.82.86,14.39,2.7,9.11,13.11,8.69,20.86,8.91,6.59.18,13.19.11,19.78-.06l.11,0,16.17,0a.48.48,0,0,0,.24-.07c6.87.2,13.75.28,20.62.09,7.75-.22,18.16.2,20.86-8.91,1.36-4.57.86-9.7.86-14.39Q100.56,38.64,100.56,29.41Zm-1-9q0,8,0,16,0,7.72,0,15.46c0,4.4.34,9.52-2.3,13.31s-7.8,4.5-12.16,4.75c-5.19.3-10.4.37-15.6.36-4.12,0-8.25-.11-12.37-.23,0,0,0,.07,0,.1l-13.54,0s0-.06,0-.08c-4.12.12-8.24.22-12.37.23-5.2,0-10.41-.06-15.6-.36-4.36-.25-9.45-.86-12.16-4.75s-2.29-8.91-2.3-13.31q0-7.73,0-15.46,0-8,0-15.95c0-4.77-.48-10.33,2.79-14.24,5-6,13.1-5.46,20.73-5a.43.43,0,0,0,.29.11L47,1.34s0,0,0,0h6.66s0,0,0,0l22.06-.07a.47.47,0,0,0,.3-.11c7.62-.42,15.71-1,20.73,5C100.05,10.11,99.58,15.67,99.57,20.44Z"/><path class="cls-1" d="M99.57,20.44c0-4.77.48-10.33-2.78-14.24-5-6-13.11-5.46-20.73-5a.47.47,0,0,1-.3.11L53.7,1.34s0,0,0,0H47s0,0,0,0L25,1.27a.43.43,0,0,1-.29-.11C17,.74,9,.2,3.94,6.2.67,10.11,1.15,15.67,1.15,20.44q0,8,0,16,0,7.72,0,15.46c0,4.4-.34,9.52,2.3,13.31s7.8,4.5,12.16,4.75c5.19.3,10.4.37,15.6.36,4.13,0,8.25-.11,12.37-.23,0,0,0,0,0,.08l13.54,0s0-.07,0-.1c4.12.12,8.25.22,12.37.23,5.2,0,10.41-.06,15.6-.36,4.36-.25,9.46-.86,12.16-4.75s2.3-8.91,2.3-13.31q0-7.73,0-15.46Q99.57,28.41,99.57,20.44ZM70.42,35.25,38.55,54a.43.43,0,0,1-.18.06.51.51,0,0,1-.89-.3c0-.29,0-.58,0-.87a.43.43,0,0,1,0-.12q0-17.68-.07-35.38a.48.48,0,0,1,.67-.45.43.43,0,0,1,.59-.09A212.52,212.52,0,0,0,70,34a.4.4,0,0,1,.25.35A.5.5,0,0,1,70.42,35.25Z"/><path class="cls-1" d="M70.27,34.34A.4.4,0,0,0,70,34,212.52,212.52,0,0,1,38.67,16.87a.43.43,0,0,0-.59.09.48.48,0,0,0-.67.45q0,17.68.07,35.38a.43.43,0,0,0,0,.12c0,.29,0,.58,0,.87a.51.51,0,0,0,.89.3.43.43,0,0,0,.18-.06L70.42,35.25A.5.5,0,0,0,70.27,34.34ZM38.48,52.9q0-17.51-.07-35A211.88,211.88,0,0,0,69.29,34.76Z"/></g></g></svg>