<svg xmlns="http://www.w3.org/2000/svg" viewBox="0 0 100.72 71.27"><defs><style>.cls-1{fill:#fff;}</style></defs><title>Recurso 1</title><g id="Capa_2" data-name="Capa 2"><g id="ICONS"><path class="cls-1" d="M100.56,29.42c0-5.55.48-11.33-.22-16.84a12.77,12.77,0,0,0-5.21-9.22C89.27-.78,82.19-.07,75.27.27L50.36.36,25.45.27c-6.92-.34-14-1-19.86,3.09A12.77,12.77,0,0,0,.38,12.58C-.32,18.09.15,23.87.16,29.42q0,9.22,0,18.44c0,4.7-.5,9.82.86,14.39,2.7,9.12,13.11,8.7,20.86,8.91,6.59.19,13.19.12,19.78-.06l.11,0,16.17,0a.48.48,0,0,0,.24-.07c6.87.2,13.75.27,20.62.08,7.75-.21,18.16.21,20.86-8.91,1.36-4.57.86-9.69.86-14.39Q100.56,38.65,100.56,29.42Zm-1-9q0,8,0,16,0,7.73,0,15.45c0,4.4.34,9.52-2.3,13.31s-7.8,4.51-12.16,4.75c-5.19.3-10.4.38-15.6.36-4.12,0-8.25-.1-12.37-.23,0,0,0,.07,0,.1H43.59s0-.06,0-.09c-4.12.13-8.24.22-12.37.23-5.2,0-10.41-.06-15.6-.36-4.36-.24-9.45-.85-12.16-4.75s-2.29-8.91-2.3-13.31q0-7.73,0-15.45,0-8,0-16c0-4.77-.48-10.32,2.79-14.24,5-6,13.1-5.46,20.72-5a.42.42,0,0,0,.3.11L47,1.35v0h6.66v0l22.06-.08a.42.42,0,0,0,.3-.11c7.62-.42,15.71-1,20.72,5C100.05,10.12,99.58,15.67,99.57,20.44Z"/><path class="cls-1" d="M70.27,34.34A.38.38,0,0,0,70,34,212.52,212.52,0,0,1,38.67,16.88a.42.42,0,0,0-.59.08.49.49,0,0,0-.67.46l.07,35.37a.51.51,0,0,0,0,.13l0,.86a.51.51,0,0,0,.89.31.64.64,0,0,0,.18-.06L70.42,35.26A.51.51,0,0,0,70.27,34.34ZM38.48,52.91q0-17.5-.07-35A211.82,211.82,0,0,0,69.29,34.76Z"/></g></g></svg>